<?xml version="1.0" encoding="UTF-8"?>
<svg id="Layer_1" data-name="Layer 1" xmlns="http://www.w3.org/2000/svg" viewBox="0 0 2368 1189.93">
  <defs>
    <style>
      .cls-1, .cls-2 {
        stroke-width: 0px;
      }

      .cls-2 {
        fill: red;
      }
    </style>
  </defs>
  <g>
    <g>
      <g>
        <polygon class="cls-1" points="1070.21 131.64 1070.21 -.8 876.79 -.8 876.79 74.47 1070.21 131.64"/>
        <polygon class="cls-1" points="876.79 228.83 876.79 488.94 1007.32 724.28 1007.32 1190.2 1070.21 1190.2 1070.21 285.99 876.79 228.83"/>
      </g>
      <g>
        <polygon class="cls-2" points="1070.21 278.37 876.79 221.2 876.79 179.73 1070.21 236.9 1070.21 278.37"/>
        <polygon class="cls-2" points="1070.21 229.55 876.79 172.38 876.79 130.91 1070.21 188.08 1070.21 229.55"/>
        <polygon class="cls-2" points="1070.21 180.73 876.79 123.56 876.79 82.1 1070.21 139.26 1070.21 180.73"/>
      </g>
    </g>
    <g>
      <g>
        <polygon class="cls-1" points="1297.79 131.64 1297.79 -.8 1491.21 -.8 1491.21 74.47 1297.79 131.64"/>
        <polygon class="cls-1" points="1491.21 228.83 1491.21 488.94 1360.68 724.28 1360.68 1190.2 1297.79 1190.2 1297.79 285.99 1491.21 228.83"/>
      </g>
      <g>
        <polygon class="cls-2" points="1297.79 278.37 1491.21 221.2 1491.21 179.73 1297.79 236.9 1297.79 278.37"/>
        <polygon class="cls-2" points="1297.79 229.55 1491.21 172.38 1491.21 130.91 1297.79 188.08 1297.79 229.55"/>
        <polygon class="cls-2" points="1297.79 180.73 1491.21 123.56 1491.21 82.1 1297.79 139.26 1297.79 180.73"/>
      </g>
    </g>
  </g>
  <g>
    <g>
      <g>
        <path class="cls-1" d="M1379.07,1089.98l94.6-161.31-1.62,41.96c-.13,3.54-1.31,7.38-3.33,10.76l-94.86,157.6,1.56-37.01c.15-3.95,1.45-8.21,3.65-12.01Z"/>
        <path class="cls-1" d="M1378.9,1024.45l94.75-161.19-1.36,37.19c-.11,3.49-1.27,7.28-3.26,10.61l-95.09,158.24,1.3-32.77c.13-3.97,1.43-8.27,3.65-12.09Z"/>
        <path class="cls-1" d="M1378.73,970.92l94.9-161.07-1.1,32.42c-.09,3.43-1.23,7.18-3.19,10.46l-95.32,158.88,1.05-28.53c.1-3.99,1.41-8.33,3.66-12.17Z"/>
        <path class="cls-1" d="M1378.56,921.39l95.05-160.94-.83,27.65c-.07,3.38-1.19,7.07-3.12,10.32l-95.55,159.52.79-24.29c.08-4.01,1.39-8.39,3.66-12.25Z"/>
        <path class="cls-1" d="M1378.39,871.86l95.2-160.82-.57,22.87c-.05,3.32-1.14,6.97-3.05,10.17l-95.78,160.16.54-20.05c.06-4.03,1.37-8.44,3.66-12.33Z"/>
        <path class="cls-1" d="M1378.22,822.33l95.35-160.7-.31,18.1c-.03,3.27-1.1,6.87-2.98,10.02l-96.01,160.8.28-15.81c.03-4.05,1.35-8.5,3.67-12.41Z"/>
        <path class="cls-1" d="M1378.06,772.8l95.5-160.58-.05,13.33c-.01,3.22-1.06,6.77-2.91,9.88l-96.24,161.44.03-11.57c.01-4.07,1.33-8.56,3.67-12.49Z"/>
      </g>
      <g>
        <path class="cls-2" d="M1386.54,1092.53l94.6-161.31-1.62,41.96c-.13,3.54-1.31,7.38-3.33,10.76l-94.86,157.6,1.56-37.01c.15-3.95,1.45-8.21,3.65-12.01Z"/>
        <path class="cls-2" d="M1386.37,1027l94.75-161.19-1.36,37.19c-.11,3.49-1.27,7.28-3.26,10.61l-95.09,158.24,1.3-32.77c.13-3.97,1.43-8.27,3.65-12.09Z"/>
        <path class="cls-2" d="M1386.2,973.47l94.9-161.07-1.1,32.42c-.09,3.43-1.23,7.18-3.19,10.46l-95.32,158.88,1.05-28.53c.1-3.99,1.41-8.33,3.66-12.17Z"/>
        <path class="cls-2" d="M1386.03,923.94l95.05-160.94-.83,27.65c-.07,3.38-1.19,7.07-3.12,10.32l-95.55,159.52.79-24.29c.08-4.01,1.39-8.39,3.66-12.25Z"/>
        <path class="cls-2" d="M1385.86,874.41l95.2-160.82-.57,22.87c-.05,3.32-1.14,6.97-3.05,10.17l-95.78,160.16.54-20.05c.06-4.03,1.37-8.44,3.66-12.33Z"/>
        <path class="cls-2" d="M1385.7,824.88l95.35-160.7-.31,18.1c-.03,3.27-1.1,6.87-2.98,10.02l-96.01,160.8.28-15.81c.03-4.05,1.35-8.5,3.67-12.41Z"/>
        <path class="cls-2" d="M1385.53,775.36l95.5-160.58-.05,13.33c-.01,3.22-1.06,6.77-2.91,9.88l-96.24,161.44.03-11.57c.01-4.07,1.33-8.56,3.67-12.49Z"/>
      </g>
    </g>
    <g>
      <g>
        <path class="cls-1" d="M988.93,1089.98l-94.6-161.31,1.62,41.96c.13,3.54,1.31,7.38,3.33,10.76l94.86,157.6-1.56-37.01c-.15-3.95-1.45-8.21-3.65-12.01Z"/>
        <path class="cls-1" d="M989.1,1024.45l-94.75-161.19,1.36,37.19c.11,3.49,1.27,7.28,3.26,10.61l95.09,158.24-1.3-32.77c-.13-3.97-1.43-8.27-3.65-12.09Z"/>
        <path class="cls-1" d="M989.27,970.92l-94.9-161.07,1.1,32.42c.09,3.43,1.23,7.18,3.19,10.46l95.32,158.88-1.05-28.53c-.1-3.99-1.41-8.33-3.66-12.17Z"/>
        <path class="cls-1" d="M989.44,921.39l-95.05-160.94.83,27.65c.07,3.38,1.19,7.07,3.12,10.32l95.55,159.52-.79-24.29c-.08-4.01-1.39-8.39-3.66-12.25Z"/>
        <path class="cls-1" d="M989.61,871.86l-95.2-160.82.57,22.87c.05,3.32,1.14,6.97,3.05,10.17l95.78,160.16-.54-20.05c-.06-4.03-1.37-8.44-3.66-12.33Z"/>
        <path class="cls-1" d="M989.78,822.33l-95.35-160.7.31,18.1c.03,3.27,1.1,6.87,2.98,10.02l96.01,160.8-.28-15.81c-.03-4.05-1.35-8.5-3.67-12.41Z"/>
        <path class="cls-1" d="M989.94,772.8l-95.5-160.58.05,13.33c.01,3.22,1.06,6.77,2.91,9.88l96.24,161.44-.03-11.57c-.01-4.07-1.33-8.56-3.67-12.49Z"/>
      </g>
      <g>
        <path class="cls-2" d="M981.46,1092.53l-94.6-161.31,1.62,41.96c.13,3.54,1.31,7.38,3.33,10.76l94.86,157.6-1.56-37.01c-.15-3.95-1.45-8.21-3.65-12.01Z"/>
        <path class="cls-2" d="M981.63,1027l-94.75-161.19,1.36,37.19c.11,3.49,1.27,7.28,3.26,10.61l95.09,158.24-1.3-32.77c-.13-3.97-1.43-8.27-3.65-12.09Z"/>
        <path class="cls-2" d="M981.8,973.47l-94.9-161.07,1.1,32.42c.09,3.43,1.23,7.18,3.19,10.46l95.32,158.88-1.05-28.53c-.1-3.99-1.41-8.33-3.66-12.17Z"/>
        <path class="cls-2" d="M981.97,923.94l-95.05-160.94.83,27.65c.07,3.38,1.19,7.07,3.12,10.32l95.55,159.52-.79-24.29c-.08-4.01-1.39-8.39-3.66-12.25Z"/>
        <path class="cls-2" d="M982.14,874.41l-95.2-160.82.57,22.87c.05,3.32,1.14,6.97,3.05,10.17l95.78,160.16-.54-20.05c-.06-4.03-1.37-8.44-3.66-12.33Z"/>
        <path class="cls-2" d="M982.3,824.88l-95.35-160.7.31,18.1c.03,3.27,1.1,6.87,2.98,10.02l96.01,160.8-.28-15.81c-.03-4.05-1.35-8.5-3.67-12.41Z"/>
        <path class="cls-2" d="M982.47,775.36l-95.5-160.58.05,13.33c.01,3.22,1.06,6.77,2.91,9.88l96.24,161.44-.03-11.57c-.01-4.07-1.33-8.56-3.67-12.49Z"/>
      </g>
    </g>
  </g>
</svg>