<?xml version="1.0" encoding="UTF-8"?>
<svg id="Layer_1" data-name="Layer 1" xmlns="http://www.w3.org/2000/svg" viewBox="0 0 2368 1189.93">
  <defs>
    <style>
      .cls-1, .cls-2, .cls-3 {
        stroke-width: 0px;
      }

      .cls-2 {
        fill: #fff;
      }

      .cls-3 {
        fill: red;
      }
    </style>
  </defs>
  <rect class="cls-3" x="-.13" y=".2" width="2368" height="1190"/>
  <g>
    <g>
      <g>
        <polygon class="cls-1" points="1070.21 131.64 1070.21 -.8 876.79 -.8 876.79 74.47 1070.21 131.64"/>
        <polygon class="cls-1" points="876.79 228.83 876.79 328.94 1007.32 564.28 1007.32 1190.2 1070.21 1190.2 1070.21 285.99 876.79 228.83"/>
      </g>
      <g>
        <polygon class="cls-2" points="1070.21 278.37 876.79 221.2 876.79 179.73 1070.21 236.9 1070.21 278.37"/>
        <polygon class="cls-2" points="1070.21 229.55 876.79 172.38 876.79 130.91 1070.21 188.08 1070.21 229.55"/>
        <polygon class="cls-2" points="1070.21 180.73 876.79 123.56 876.79 82.1 1070.21 139.26 1070.21 180.73"/>
      </g>
    </g>
    <g>
      <g>
        <polygon class="cls-1" points="1297.79 131.64 1297.79 -.8 1491.21 -.8 1491.21 74.47 1297.79 131.64"/>
        <polygon class="cls-1" points="1491.21 228.83 1491.21 328.94 1360.68 564.28 1360.68 1190.2 1297.79 1190.2 1297.79 285.99 1491.21 228.83"/>
      </g>
      <g>
        <polygon class="cls-2" points="1297.79 278.37 1491.21 221.2 1491.21 179.73 1297.79 236.9 1297.79 278.37"/>
        <polygon class="cls-2" points="1297.79 229.55 1491.21 172.38 1491.21 130.91 1297.79 188.08 1297.79 229.55"/>
        <polygon class="cls-2" points="1297.79 180.73 1491.21 123.56 1491.21 82.1 1297.79 139.26 1297.79 180.73"/>
      </g>
    </g>
  </g>
</svg>