<?xml version="1.0" encoding="UTF-8"?>
<svg id="Layer_1" data-name="Layer 1" xmlns="http://www.w3.org/2000/svg" viewBox="0 0 2368 4046">
  <defs>
    <style>
      .cls-1, .cls-2, .cls-3 {
        stroke-width: 0px;
      }

      .cls-2 {
        fill: red;
      }

      .cls-3 {
        fill-rule: evenodd;
      }
    </style>
  </defs>
  <g>
    <g>
      <polygon class="cls-1" points="1297.79 2448.68 1297.79 1633.24 1491.21 1398.24 1491.21 2391.51 1297.79 2448.68"/>
      <g>
        <polygon class="cls-2" points="1297.79 2595.41 1491.21 2538.24 1491.21 2496.77 1297.79 2553.94 1297.79 2595.41"/>
        <polygon class="cls-2" points="1297.79 2546.59 1491.21 2489.42 1491.21 2447.95 1297.79 2505.12 1297.79 2546.59"/>
        <polygon class="cls-2" points="1297.79 2497.77 1491.21 2440.6 1491.21 2399.13 1297.79 2456.3 1297.79 2497.77"/>
      </g>
    </g>
    <polygon class="cls-1" points="1491.21 4046.24 1491.21 2545.86 1297.79 2603.03 1297.79 4046.24 1491.21 4046.24"/>
    <g>
      <g>
        <path class="cls-1" d="M1307.93,1503l169.52-210.82-2.2,65.14c-.17,5.5-2.26,11-5.87,15.4l-170.05,204.9,2.17-57.4c.2-6.13,2.49-12.25,6.44-17.21Z"/>
        <path class="cls-1" d="M1306.73,1425.18l169.79-210.57-1.81,57.77c-.13,5.43-2.18,10.85-5.75,15.2l-170.46,205.8,1.78-50.86c.16-6.17,2.45-12.34,6.44-17.34Z"/>
        <path class="cls-1" d="M1305.53,1347.37l170.07-210.31-1.41,50.39c-.1,5.35-2.11,10.71-5.62,15l-170.87,206.7,1.39-44.31c.12-6.21,2.42-12.44,6.45-17.46Z"/>
        <path class="cls-1" d="M1304.33,1269.55l170.34-210.05-1.02,43.02c-.06,5.27-2.03,10.57-5.5,14.8l-171.28,207.6,1.01-37.77c.07-6.25,2.38-12.54,6.45-17.59Z"/>
        <path class="cls-1" d="M1303.13,1191.74l170.62-209.8-.63,35.64c-.03,5.2-1.96,10.43-5.38,14.6l-171.69,208.5.62-31.23c.03-6.3,2.34-12.64,6.46-17.71Z"/>
        <path class="cls-1" d="M1301.93,1113.92l170.89-209.54-.24,28.27c0,5.12-1.88,10.29-5.25,14.4l-172.1,209.4.23-24.69c-.01-6.34,2.31-12.74,6.46-17.84Z"/>
        <path class="cls-1" d="M1300.73,1036.11l171.17-209.28.16,20.9c.04,5.04-1.81,10.15-5.13,14.2l-172.51,210.3-.15-18.14c-.05-6.38,2.27-12.84,6.47-17.97Z"/>
      </g>
      <g>
        <path class="cls-2" d="M1321.6,1510.35l169.52-210.82-2.2,65.14c-.17,5.5-2.26,11-5.87,15.4l-170.05,204.9,2.17-57.4c.2-6.13,2.49-12.25,6.44-17.21Z"/>
        <path class="cls-2" d="M1320.4,1432.53l169.79-210.57-1.81,57.77c-.13,5.43-2.18,10.85-5.75,15.2l-170.46,205.8,1.78-50.86c.16-6.17,2.45-12.34,6.44-17.34Z"/>
        <path class="cls-2" d="M1319.2,1354.72l170.07-210.31-1.41,50.39c-.1,5.35-2.11,10.71-5.62,15l-170.87,206.7,1.39-44.31c.12-6.21,2.42-12.44,6.45-17.46Z"/>
        <path class="cls-2" d="M1318,1276.9l170.34-210.05-1.02,43.02c-.06,5.27-2.03,10.57-5.5,14.8l-171.28,207.6,1.01-37.77c.07-6.25,2.38-12.54,6.45-17.59Z"/>
        <path class="cls-2" d="M1316.79,1199.09l170.62-209.8-.63,35.64c-.03,5.2-1.96,10.43-5.38,14.6l-171.69,208.5.62-31.23c.03-6.3,2.34-12.64,6.46-17.71Z"/>
        <path class="cls-2" d="M1315.59,1121.27l170.89-209.54-.24,28.27c0,5.12-1.88,10.29-5.25,14.4l-172.1,209.4.23-24.69c-.01-6.34,2.31-12.74,6.46-17.84Z"/>
        <path class="cls-2" d="M1314.39,1043.46l171.17-209.28.16,20.9c.04,5.04-1.81,10.15-5.13,14.2l-172.51,210.3-.15-18.14c-.05-6.38,2.27-12.84,6.47-17.97Z"/>
      </g>
    </g>
  </g>
  <polygon class="cls-1" points="1068.44 2448.68 1068.44 1633.24 875.03 1398.24 875.03 2391.51 1068.44 2448.68"/>
  <polygon class="cls-1" points="875.03 699.24 875.03 773.68 1068.44 1008.68 1068.44 777.41 875.03 699.24"/>
  <polygon class="cls-1" points="1491.21 699.24 1491.21 773.68 1297.79 1008.68 1297.79 777.41 1491.21 699.24"/>
  <g>
    <polygon class="cls-2" points="1068.44 2595.41 875.03 2538.24 875.03 2496.77 1068.44 2553.94 1068.44 2595.41"/>
    <polygon class="cls-2" points="1068.44 2546.59 875.03 2489.42 875.03 2447.95 1068.44 2505.12 1068.44 2546.59"/>
    <polygon class="cls-2" points="1068.44 2497.77 875.03 2440.6 875.03 2399.13 1068.44 2456.3 1068.44 2497.77"/>
  </g>
  <polygon class="cls-1" points="875.03 4046.24 875.03 2545.86 1068.44 2603.03 1068.44 4046.24 875.03 4046.24"/>
  <g>
    <g>
      <path class="cls-1" d="M1058.3,1503l-169.52-210.82,2.2,65.14c.17,5.5,2.26,11,5.87,15.4l170.05,204.9-2.17-57.4c-.2-6.13-2.49-12.25-6.44-17.21Z"/>
      <path class="cls-1" d="M1059.5,1425.18l-169.79-210.57,1.81,57.77c.13,5.43,2.18,10.85,5.75,15.2l170.46,205.8-1.78-50.86c-.16-6.17-2.45-12.34-6.44-17.34Z"/>
      <path class="cls-1" d="M1060.7,1347.37l-170.07-210.31,1.41,50.39c.1,5.35,2.11,10.71,5.62,15l170.87,206.7-1.39-44.31c-.12-6.21-2.42-12.44-6.45-17.46Z"/>
      <path class="cls-1" d="M1061.91,1269.55l-170.34-210.05,1.02,43.02c.06,5.27,2.03,10.57,5.5,14.8l171.28,207.6-1.01-37.77c-.07-6.25-2.38-12.54-6.45-17.59Z"/>
      <path class="cls-1" d="M1063.11,1191.74l-170.62-209.8.63,35.64c.03,5.2,1.96,10.43,5.38,14.6l171.69,208.5-.62-31.23c-.03-6.3-2.34-12.64-6.46-17.71Z"/>
      <path class="cls-1" d="M1064.31,1113.92l-170.89-209.54.24,28.27c0,5.12,1.88,10.29,5.25,14.4l172.1,209.4-.23-24.69c.01-6.34-2.31-12.74-6.46-17.84Z"/>
      <path class="cls-1" d="M1065.51,1036.11l-171.17-209.28-.16,20.9c-.04,5.04,1.81,10.15,5.13,14.2l172.51,210.3.15-18.14c.05-6.38-2.27-12.84-6.47-17.97Z"/>
    </g>
    <g>
      <path class="cls-2" d="M1044.64,1510.35l-169.52-210.82,2.2,65.14c.17,5.5,2.26,11,5.87,15.4l170.05,204.9-2.17-57.4c-.2-6.13-2.49-12.25-6.44-17.21Z"/>
      <path class="cls-2" d="M1045.84,1432.53l-169.79-210.57,1.81,57.77c.13,5.43,2.18,10.85,5.75,15.2l170.46,205.8-1.78-50.86c-.16-6.17-2.45-12.34-6.44-17.34Z"/>
      <path class="cls-2" d="M1047.04,1354.72l-170.07-210.31,1.41,50.39c.1,5.35,2.11,10.71,5.62,15l170.87,206.7-1.39-44.31c-.12-6.21-2.42-12.44-6.45-17.46Z"/>
      <path class="cls-2" d="M1048.24,1276.9l-170.34-210.05,1.02,43.02c.06,5.27,2.03,10.57,5.5,14.8l171.28,207.6-1.01-37.77c-.07-6.25-2.38-12.54-6.45-17.59Z"/>
      <path class="cls-2" d="M1049.44,1199.09l-170.62-209.8.63,35.64c.03,5.2,1.96,10.43,5.38,14.6l171.69,208.5-.62-31.23c-.03-6.3-2.34-12.64-6.46-17.71Z"/>
      <path class="cls-2" d="M1050.64,1121.27l-170.89-209.54.24,28.27c0,5.12,1.88,10.29,5.25,14.4l172.1,209.4-.23-24.69c.01-6.34-2.31-12.74-6.46-17.84Z"/>
      <path class="cls-2" d="M1051.84,1043.46l-171.17-209.28-.16,20.9c-.04,5.04,1.81,10.15,5.13,14.2l172.51,210.3.15-18.14c.05-6.38-2.27-12.84-6.47-17.97Z"/>
    </g>
  </g>
  <g>
    <g>
      <polygon class="cls-3" points="1317.64 723.99 1298.5 762.67 1336.37 746.95 1317.64 723.99"/>
      <polygon class="cls-3" points="1317.84 693.85 1299.21 731.49 1336.07 716.19 1317.84 693.85"/>
      <polygon class="cls-3" points="1318.04 663.7 1299.92 700.32 1335.77 685.44 1318.04 663.7"/>
      <polygon class="cls-3" points="1318.24 633.56 1300.63 669.14 1335.47 654.68 1318.24 633.56"/>
      <polygon class="cls-3" points="1318.44 603.42 1301.35 637.97 1335.18 623.92 1318.44 603.42"/>
      <polygon class="cls-3" points="1318.64 573.27 1302.06 606.79 1334.88 593.17 1318.64 573.27"/>
      <polygon class="cls-3" points="1318.85 543.13 1302.77 575.61 1334.58 562.41 1318.85 543.13"/>
      <polygon class="cls-3" points="1319.05 512.99 1303.48 544.44 1334.28 531.66 1319.05 512.99"/>
      <polygon class="cls-3" points="1319.25 482.84 1304.19 513.26 1333.98 500.9 1319.25 482.84"/>
      <polygon class="cls-3" points="1319.45 452.7 1304.9 482.09 1333.68 470.14 1319.45 452.7"/>
      <polygon class="cls-3" points="1319.65 422.56 1305.62 450.91 1333.38 439.39 1319.65 422.56"/>
      <polygon class="cls-3" points="1319.85 392.42 1306.33 419.74 1333.08 408.63 1319.85 392.42"/>
      <polygon class="cls-3" points="1320.05 362.27 1307.04 388.56 1332.78 377.88 1320.05 362.27"/>
      <polygon class="cls-3" points="1320.25 332.13 1307.75 357.39 1332.48 347.12 1320.25 332.13"/>
      <polygon class="cls-3" points="1320.45 301.99 1308.46 326.21 1332.18 316.37 1320.45 301.99"/>
      <polygon class="cls-3" points="1320.65 271.84 1309.17 295.04 1331.88 285.61 1320.65 271.84"/>
      <polygon class="cls-3" points="1320.85 241.7 1309.88 263.86 1331.58 254.85 1320.85 241.7"/>
      <polygon class="cls-3" points="1321.05 211.56 1310.6 232.69 1331.28 224.1 1321.05 211.56"/>
      <polygon class="cls-3" points="1321.25 181.41 1311.31 201.51 1330.99 193.34 1321.25 181.41"/>
      <polygon class="cls-3" points="1321.45 151.27 1312.02 170.33 1330.69 162.59 1321.45 151.27"/>
      <polygon class="cls-3" points="1321.65 121.13 1312.73 139.16 1330.39 131.83 1321.65 121.13"/>
      <polygon class="cls-3" points="1321.86 90.98 1313.44 107.98 1330.09 101.07 1321.86 90.98"/>
      <polygon class="cls-3" points="1322.06 60.84 1314.15 76.81 1329.79 70.32 1322.06 60.84"/>
      <polygon class="cls-3" points="1322.26 30.7 1314.87 45.63 1329.49 39.56 1322.26 30.7"/>
      <polygon class="cls-3" points="1322.46 .55 1315.58 14.46 1329.19 8.81 1322.46 .55"/>
    </g>
    <g>
      <polygon class="cls-3" points="1356.17 708 1337.03 746.67 1374.9 730.95 1356.17 708"/>
      <polygon class="cls-3" points="1356.37 677.85 1337.74 715.5 1374.6 700.2 1356.37 677.85"/>
      <polygon class="cls-3" points="1356.57 647.71 1338.46 684.32 1374.31 669.44 1356.57 647.71"/>
      <polygon class="cls-3" points="1356.78 617.57 1339.17 653.15 1374.01 638.69 1356.78 617.57"/>
      <polygon class="cls-3" points="1356.98 587.42 1339.88 621.97 1373.71 607.93 1356.98 587.42"/>
      <polygon class="cls-3" points="1357.18 557.28 1340.59 590.8 1373.41 577.17 1357.18 557.28"/>
      <polygon class="cls-3" points="1357.38 527.14 1341.3 559.62 1373.11 546.42 1357.38 527.14"/>
      <polygon class="cls-3" points="1357.58 496.99 1342.01 528.45 1372.81 515.66 1357.58 496.99"/>
      <polygon class="cls-3" points="1357.78 466.85 1342.72 497.27 1372.51 484.91 1357.78 466.85"/>
      <polygon class="cls-3" points="1357.98 436.71 1343.44 466.09 1372.21 454.15 1357.98 436.71"/>
      <polygon class="cls-3" points="1358.18 406.56 1344.15 434.92 1371.91 423.4 1358.18 406.56"/>
      <polygon class="cls-3" points="1358.38 376.42 1344.86 403.74 1371.61 392.64 1358.38 376.42"/>
      <polygon class="cls-3" points="1358.58 346.28 1345.57 372.57 1371.31 361.88 1358.58 346.28"/>
      <polygon class="cls-3" points="1358.78 316.14 1346.28 341.39 1371.01 331.13 1358.78 316.14"/>
      <polygon class="cls-3" points="1358.98 285.99 1346.99 310.22 1370.71 300.37 1358.98 285.99"/>
      <polygon class="cls-3" points="1359.18 255.85 1347.7 279.04 1370.42 269.62 1359.18 255.85"/>
      <polygon class="cls-3" points="1359.38 225.71 1348.42 247.87 1370.12 238.86 1359.38 225.71"/>
      <polygon class="cls-3" points="1359.58 195.56 1349.13 216.69 1369.82 208.1 1359.58 195.56"/>
      <polygon class="cls-3" points="1359.79 165.42 1349.84 185.52 1369.52 177.35 1359.79 165.42"/>
      <polygon class="cls-3" points="1359.99 135.28 1350.55 154.34 1369.22 146.59 1359.99 135.28"/>
      <polygon class="cls-3" points="1360.19 105.13 1351.26 123.17 1368.92 115.84 1360.19 105.13"/>
      <polygon class="cls-3" points="1360.39 74.99 1351.97 91.99 1368.62 85.08 1360.39 74.99"/>
      <polygon class="cls-3" points="1360.59 44.85 1352.69 60.81 1368.32 54.33 1360.59 44.85"/>
      <polygon class="cls-3" points="1360.79 14.7 1353.4 29.64 1368.02 23.57 1360.79 14.7"/>
    </g>
    <g>
      <polygon class="cls-3" points="1394.71 692 1375.56 730.68 1413.44 714.96 1394.71 692"/>
      <polygon class="cls-3" points="1394.91 661.86 1376.28 699.5 1413.14 684.2 1394.91 661.86"/>
      <polygon class="cls-3" points="1395.11 631.72 1376.99 668.33 1412.84 653.45 1395.11 631.72"/>
      <polygon class="cls-3" points="1395.31 601.57 1377.7 637.15 1412.54 622.69 1395.31 601.57"/>
      <polygon class="cls-3" points="1395.51 571.43 1378.41 605.98 1412.24 591.94 1395.51 571.43"/>
      <polygon class="cls-3" points="1395.71 541.29 1379.12 574.8 1411.94 561.18 1395.71 541.29"/>
      <polygon class="cls-3" points="1395.91 511.14 1379.83 543.63 1411.64 530.42 1395.91 511.14"/>
      <polygon class="cls-3" points="1396.11 481 1380.54 512.45 1411.34 499.67 1396.11 481"/>
      <polygon class="cls-3" points="1396.31 450.86 1381.26 481.28 1411.04 468.91 1396.31 450.86"/>
      <polygon class="cls-3" points="1396.51 420.71 1381.97 450.1 1410.74 438.16 1396.51 420.71"/>
      <polygon class="cls-3" points="1396.71 390.57 1382.68 418.93 1410.44 407.4 1396.71 390.57"/>
      <polygon class="cls-3" points="1396.91 360.43 1383.39 387.75 1410.14 376.65 1396.91 360.43"/>
      <polygon class="cls-3" points="1397.11 330.28 1384.1 356.57 1409.84 345.89 1397.11 330.28"/>
      <polygon class="cls-3" points="1397.31 300.14 1384.81 325.4 1409.55 315.13 1397.31 300.14"/>
      <polygon class="cls-3" points="1397.51 270 1385.53 294.22 1409.25 284.38 1397.51 270"/>
      <polygon class="cls-3" points="1397.72 239.86 1386.24 263.05 1408.95 253.62 1397.72 239.86"/>
      <polygon class="cls-3" points="1397.92 209.71 1386.95 231.87 1408.65 222.87 1397.92 209.71"/>
      <polygon class="cls-3" points="1398.12 179.57 1387.66 200.7 1408.35 192.11 1398.12 179.57"/>
      <polygon class="cls-3" points="1398.32 149.43 1388.37 169.52 1408.05 161.35 1398.32 149.43"/>
      <polygon class="cls-3" points="1398.52 119.28 1389.08 138.35 1407.75 130.6 1398.52 119.28"/>
      <polygon class="cls-3" points="1398.72 89.14 1389.79 107.17 1407.45 99.84 1398.72 89.14"/>
      <polygon class="cls-3" points="1398.92 59 1390.51 76 1407.15 69.09 1398.92 59"/>
      <polygon class="cls-3" points="1399.12 28.85 1391.22 44.82 1406.85 38.33 1399.12 28.85"/>
      <polygon class="cls-3" points="1399.32 -1.29 1391.93 13.65 1406.55 7.58 1399.32 -1.29"/>
    </g>
    <g>
      <polygon class="cls-3" points="1433.24 676.01 1414.1 714.69 1451.97 698.97 1433.24 676.01"/>
      <polygon class="cls-3" points="1433.44 645.87 1414.81 683.51 1451.67 668.21 1433.44 645.87"/>
      <polygon class="cls-3" points="1433.64 615.72 1415.52 652.34 1451.37 637.45 1433.64 615.72"/>
      <polygon class="cls-3" points="1433.84 585.58 1416.23 621.16 1451.07 606.7 1433.84 585.58"/>
      <polygon class="cls-3" points="1434.04 555.44 1416.94 589.98 1450.77 575.94 1434.04 555.44"/>
      <polygon class="cls-3" points="1434.24 525.29 1417.65 558.81 1450.47 545.19 1434.24 525.29"/>
      <polygon class="cls-3" points="1434.44 495.15 1418.37 527.63 1450.17 514.43 1434.44 495.15"/>
      <polygon class="cls-3" points="1434.64 465.01 1419.08 496.46 1449.87 483.68 1434.64 465.01"/>
      <polygon class="cls-3" points="1434.84 434.86 1419.79 465.28 1449.57 452.92 1434.84 434.86"/>
      <polygon class="cls-3" points="1435.04 404.72 1420.5 434.11 1449.27 422.16 1435.04 404.72"/>
      <polygon class="cls-3" points="1435.24 374.58 1421.21 402.93 1448.98 391.41 1435.24 374.58"/>
      <polygon class="cls-3" points="1435.44 344.43 1421.92 371.76 1448.68 360.65 1435.44 344.43"/>
      <polygon class="cls-3" points="1435.64 314.29 1422.63 340.58 1448.38 329.9 1435.64 314.29"/>
      <polygon class="cls-3" points="1435.85 284.15 1423.35 309.41 1448.08 299.14 1435.85 284.15"/>
      <polygon class="cls-3" points="1436.05 254.01 1424.06 278.23 1447.78 268.38 1436.05 254.01"/>
      <polygon class="cls-3" points="1436.25 223.86 1424.77 247.06 1447.48 237.63 1436.25 223.86"/>
      <polygon class="cls-3" points="1436.45 193.72 1425.48 215.88 1447.18 206.87 1436.45 193.72"/>
      <polygon class="cls-3" points="1436.65 163.58 1426.19 184.7 1446.88 176.12 1436.65 163.58"/>
      <polygon class="cls-3" points="1436.85 133.43 1426.9 153.53 1446.58 145.36 1436.85 133.43"/>
      <polygon class="cls-3" points="1437.05 103.29 1427.61 122.35 1446.28 114.61 1437.05 103.29"/>
      <polygon class="cls-3" points="1437.25 73.15 1428.33 91.18 1445.98 83.85 1437.25 73.15"/>
      <polygon class="cls-3" points="1437.45 43 1429.04 60 1445.68 53.09 1437.45 43"/>
      <polygon class="cls-3" points="1437.65 12.86 1429.75 28.83 1445.38 22.34 1437.65 12.86"/>
    </g>
    <g>
      <polygon class="cls-3" points="1471.77 660.01 1452.63 698.69 1490.5 682.97 1471.77 660.01"/>
      <polygon class="cls-3" points="1471.97 629.87 1453.34 667.52 1490.2 652.22 1471.97 629.87"/>
      <polygon class="cls-3" points="1472.17 599.73 1454.05 636.34 1489.9 621.46 1472.17 599.73"/>
      <polygon class="cls-3" points="1472.37 569.59 1454.76 605.17 1489.6 590.71 1472.37 569.59"/>
      <polygon class="cls-3" points="1472.57 539.44 1455.47 573.99 1489.3 559.95 1472.57 539.44"/>
      <polygon class="cls-3" points="1472.77 509.3 1456.19 542.82 1489 529.19 1472.77 509.3"/>
      <polygon class="cls-3" points="1472.97 479.16 1456.9 511.64 1488.7 498.44 1472.97 479.16"/>
      <polygon class="cls-3" points="1473.17 449.01 1457.61 480.46 1488.41 467.68 1473.17 449.01"/>
      <polygon class="cls-3" points="1473.37 418.87 1458.32 449.29 1488.11 436.93 1473.37 418.87"/>
      <polygon class="cls-3" points="1473.57 388.73 1459.03 418.11 1487.81 406.17 1473.57 388.73"/>
      <polygon class="cls-3" points="1473.78 358.58 1459.74 386.94 1487.51 375.41 1473.78 358.58"/>
      <polygon class="cls-3" points="1473.98 328.44 1460.45 355.76 1487.21 344.66 1473.98 328.44"/>
      <polygon class="cls-3" points="1474.18 298.3 1461.17 324.59 1486.91 313.9 1474.18 298.3"/>
      <polygon class="cls-3" points="1474.38 268.15 1461.88 293.41 1486.61 283.15 1474.38 268.15"/>
      <polygon class="cls-3" points="1474.58 238.01 1462.59 262.24 1486.31 252.39 1474.58 238.01"/>
      <polygon class="cls-3" points="1474.78 207.87 1463.3 231.06 1486.01 221.64 1474.78 207.87"/>
      <polygon class="cls-3" points="1474.98 177.73 1464.01 199.89 1485.71 190.88 1474.98 177.73"/>
      <polygon class="cls-3" points="1475.18 147.58 1464.72 168.71 1485.41 160.12 1475.18 147.58"/>
      <polygon class="cls-3" points="1475.38 117.44 1465.44 137.54 1485.11 129.37 1475.38 117.44"/>
      <polygon class="cls-3" points="1475.58 87.3 1466.15 106.36 1484.81 98.61 1475.58 87.3"/>
      <polygon class="cls-3" points="1475.78 57.15 1466.86 75.18 1484.51 67.86 1475.78 57.15"/>
      <polygon class="cls-3" points="1475.98 27.01 1467.57 44.01 1484.22 37.1 1475.98 27.01"/>
      <polygon class="cls-3" points="1476.18 -3.13 1468.28 12.83 1483.92 6.34 1476.18 -3.13"/>
    </g>
  </g>
  <g>
    <g>
      <polygon class="cls-3" points="1048.36 723.99 1067.5 762.67 1029.63 746.95 1048.36 723.99"/>
      <polygon class="cls-3" points="1048.16 693.85 1066.79 731.49 1029.93 716.19 1048.16 693.85"/>
      <polygon class="cls-3" points="1047.96 663.7 1066.08 700.32 1030.23 685.44 1047.96 663.7"/>
      <polygon class="cls-3" points="1047.76 633.56 1065.37 669.14 1030.53 654.68 1047.76 633.56"/>
      <polygon class="cls-3" points="1047.56 603.42 1064.65 637.97 1030.82 623.92 1047.56 603.42"/>
      <polygon class="cls-3" points="1047.36 573.27 1063.94 606.79 1031.12 593.17 1047.36 573.27"/>
      <polygon class="cls-3" points="1047.15 543.13 1063.23 575.61 1031.42 562.41 1047.15 543.13"/>
      <polygon class="cls-3" points="1046.95 512.99 1062.52 544.44 1031.72 531.66 1046.95 512.99"/>
      <polygon class="cls-3" points="1046.75 482.84 1061.81 513.26 1032.02 500.9 1046.75 482.84"/>
      <polygon class="cls-3" points="1046.55 452.7 1061.1 482.09 1032.32 470.14 1046.55 452.7"/>
      <polygon class="cls-3" points="1046.35 422.56 1060.38 450.91 1032.62 439.39 1046.35 422.56"/>
      <polygon class="cls-3" points="1046.15 392.42 1059.67 419.74 1032.92 408.63 1046.15 392.42"/>
      <polygon class="cls-3" points="1045.95 362.27 1058.96 388.56 1033.22 377.88 1045.95 362.27"/>
      <polygon class="cls-3" points="1045.75 332.13 1058.25 357.39 1033.52 347.12 1045.75 332.13"/>
      <polygon class="cls-3" points="1045.55 301.99 1057.54 326.21 1033.82 316.37 1045.55 301.99"/>
      <polygon class="cls-3" points="1045.35 271.84 1056.83 295.04 1034.12 285.61 1045.35 271.84"/>
      <polygon class="cls-3" points="1045.15 241.7 1056.12 263.86 1034.42 254.85 1045.15 241.7"/>
      <polygon class="cls-3" points="1044.95 211.56 1055.4 232.69 1034.72 224.1 1044.95 211.56"/>
      <polygon class="cls-3" points="1044.75 181.41 1054.69 201.51 1035.01 193.34 1044.75 181.41"/>
      <polygon class="cls-3" points="1044.55 151.27 1053.98 170.33 1035.31 162.59 1044.55 151.27"/>
      <polygon class="cls-3" points="1044.35 121.13 1053.27 139.16 1035.61 131.83 1044.35 121.13"/>
      <polygon class="cls-3" points="1044.14 90.98 1052.56 107.98 1035.91 101.07 1044.14 90.98"/>
      <polygon class="cls-3" points="1043.94 60.84 1051.85 76.81 1036.21 70.32 1043.94 60.84"/>
      <polygon class="cls-3" points="1043.74 30.7 1051.13 45.63 1036.51 39.56 1043.74 30.7"/>
      <polygon class="cls-3" points="1043.54 .55 1050.42 14.46 1036.81 8.81 1043.54 .55"/>
    </g>
    <g>
      <polygon class="cls-3" points="1009.83 708 1028.97 746.67 991.1 730.95 1009.83 708"/>
      <polygon class="cls-3" points="1009.63 677.85 1028.26 715.5 991.4 700.2 1009.63 677.85"/>
      <polygon class="cls-3" points="1009.43 647.71 1027.54 684.32 991.69 669.44 1009.43 647.71"/>
      <polygon class="cls-3" points="1009.22 617.57 1026.83 653.15 991.99 638.69 1009.22 617.57"/>
      <polygon class="cls-3" points="1009.02 587.42 1026.12 621.97 992.29 607.93 1009.02 587.42"/>
      <polygon class="cls-3" points="1008.82 557.28 1025.41 590.8 992.59 577.17 1008.82 557.28"/>
      <polygon class="cls-3" points="1008.62 527.14 1024.7 559.62 992.89 546.42 1008.62 527.14"/>
      <polygon class="cls-3" points="1008.42 496.99 1023.99 528.45 993.19 515.66 1008.42 496.99"/>
      <polygon class="cls-3" points="1008.22 466.85 1023.28 497.27 993.49 484.91 1008.22 466.85"/>
      <polygon class="cls-3" points="1008.02 436.71 1022.56 466.09 993.79 454.15 1008.02 436.71"/>
      <polygon class="cls-3" points="1007.82 406.56 1021.85 434.92 994.09 423.4 1007.82 406.56"/>
      <polygon class="cls-3" points="1007.62 376.42 1021.14 403.74 994.39 392.64 1007.62 376.42"/>
      <polygon class="cls-3" points="1007.42 346.28 1020.43 372.57 994.69 361.88 1007.42 346.28"/>
      <polygon class="cls-3" points="1007.22 316.14 1019.72 341.39 994.99 331.13 1007.22 316.14"/>
      <polygon class="cls-3" points="1007.02 285.99 1019.01 310.22 995.29 300.37 1007.02 285.99"/>
      <polygon class="cls-3" points="1006.82 255.85 1018.3 279.04 995.58 269.62 1006.82 255.85"/>
      <polygon class="cls-3" points="1006.62 225.71 1017.58 247.87 995.88 238.86 1006.62 225.71"/>
      <polygon class="cls-3" points="1006.42 195.56 1016.87 216.69 996.18 208.1 1006.42 195.56"/>
      <polygon class="cls-3" points="1006.21 165.42 1016.16 185.52 996.48 177.35 1006.21 165.42"/>
      <polygon class="cls-3" points="1006.01 135.28 1015.45 154.34 996.78 146.59 1006.01 135.28"/>
      <polygon class="cls-3" points="1005.81 105.13 1014.74 123.17 997.08 115.84 1005.81 105.13"/>
      <polygon class="cls-3" points="1005.61 74.99 1014.03 91.99 997.38 85.08 1005.61 74.99"/>
      <polygon class="cls-3" points="1005.41 44.85 1013.31 60.81 997.68 54.33 1005.41 44.85"/>
      <polygon class="cls-3" points="1005.21 14.7 1012.6 29.64 997.98 23.57 1005.21 14.7"/>
    </g>
    <g>
      <polygon class="cls-3" points="971.29 692 990.44 730.68 952.56 714.96 971.29 692"/>
      <polygon class="cls-3" points="971.09 661.86 989.72 699.5 952.86 684.2 971.09 661.86"/>
      <polygon class="cls-3" points="970.89 631.72 989.01 668.33 953.16 653.45 970.89 631.72"/>
      <polygon class="cls-3" points="970.69 601.57 988.3 637.15 953.46 622.69 970.69 601.57"/>
      <polygon class="cls-3" points="970.49 571.43 987.59 605.98 953.76 591.94 970.49 571.43"/>
      <polygon class="cls-3" points="970.29 541.29 986.88 574.8 954.06 561.18 970.29 541.29"/>
      <polygon class="cls-3" points="970.09 511.14 986.17 543.63 954.36 530.42 970.09 511.14"/>
      <polygon class="cls-3" points="969.89 481 985.46 512.45 954.66 499.67 969.89 481"/>
      <polygon class="cls-3" points="969.69 450.86 984.74 481.28 954.96 468.91 969.69 450.86"/>
      <polygon class="cls-3" points="969.49 420.71 984.03 450.1 955.26 438.16 969.49 420.71"/>
      <polygon class="cls-3" points="969.29 390.57 983.32 418.93 955.56 407.4 969.29 390.57"/>
      <polygon class="cls-3" points="969.09 360.43 982.61 387.75 955.86 376.65 969.09 360.43"/>
      <polygon class="cls-3" points="968.89 330.28 981.9 356.57 956.16 345.89 968.89 330.28"/>
      <polygon class="cls-3" points="968.69 300.14 981.19 325.4 956.45 315.13 968.69 300.14"/>
      <polygon class="cls-3" points="968.49 270 980.47 294.22 956.75 284.38 968.49 270"/>
      <polygon class="cls-3" points="968.28 239.86 979.76 263.05 957.05 253.62 968.28 239.86"/>
      <polygon class="cls-3" points="968.08 209.71 979.05 231.87 957.35 222.87 968.08 209.71"/>
      <polygon class="cls-3" points="967.88 179.57 978.34 200.7 957.65 192.11 967.88 179.57"/>
      <polygon class="cls-3" points="967.68 149.43 977.63 169.52 957.95 161.35 967.68 149.43"/>
      <polygon class="cls-3" points="967.48 119.28 976.92 138.35 958.25 130.6 967.48 119.28"/>
      <polygon class="cls-3" points="967.28 89.14 976.21 107.17 958.55 99.84 967.28 89.14"/>
      <polygon class="cls-3" points="967.08 59 975.49 76 958.85 69.09 967.08 59"/>
      <polygon class="cls-3" points="966.88 28.85 974.78 44.82 959.15 38.33 966.88 28.85"/>
      <polygon class="cls-3" points="966.68 -1.29 974.07 13.65 959.45 7.58 966.68 -1.29"/>
    </g>
    <g>
      <polygon class="cls-3" points="932.76 676.01 951.9 714.69 914.03 698.97 932.76 676.01"/>
      <polygon class="cls-3" points="932.56 645.87 951.19 683.51 914.33 668.21 932.56 645.87"/>
      <polygon class="cls-3" points="932.36 615.72 950.48 652.34 914.63 637.45 932.36 615.72"/>
      <polygon class="cls-3" points="932.16 585.58 949.77 621.16 914.93 606.7 932.16 585.58"/>
      <polygon class="cls-3" points="931.96 555.44 949.06 589.98 915.23 575.94 931.96 555.44"/>
      <polygon class="cls-3" points="931.76 525.29 948.35 558.81 915.53 545.19 931.76 525.29"/>
      <polygon class="cls-3" points="931.56 495.15 947.63 527.63 915.83 514.43 931.56 495.15"/>
      <polygon class="cls-3" points="931.36 465.01 946.92 496.46 916.13 483.68 931.36 465.01"/>
      <polygon class="cls-3" points="931.16 434.86 946.21 465.28 916.43 452.92 931.16 434.86"/>
      <polygon class="cls-3" points="930.96 404.72 945.5 434.11 916.73 422.16 930.96 404.72"/>
      <polygon class="cls-3" points="930.76 374.58 944.79 402.93 917.02 391.41 930.76 374.58"/>
      <polygon class="cls-3" points="930.56 344.43 944.08 371.76 917.32 360.65 930.56 344.43"/>
      <polygon class="cls-3" points="930.36 314.29 943.37 340.58 917.62 329.9 930.36 314.29"/>
      <polygon class="cls-3" points="930.15 284.15 942.65 309.41 917.92 299.14 930.15 284.15"/>
      <polygon class="cls-3" points="929.95 254.01 941.94 278.23 918.22 268.38 929.95 254.01"/>
      <polygon class="cls-3" points="929.75 223.86 941.23 247.06 918.52 237.63 929.75 223.86"/>
      <polygon class="cls-3" points="929.55 193.72 940.52 215.88 918.82 206.87 929.55 193.72"/>
      <polygon class="cls-3" points="929.35 163.58 939.81 184.7 919.12 176.12 929.35 163.58"/>
      <polygon class="cls-3" points="929.15 133.43 939.1 153.53 919.42 145.36 929.15 133.43"/>
      <polygon class="cls-3" points="928.95 103.29 938.39 122.35 919.72 114.61 928.95 103.29"/>
      <polygon class="cls-3" points="928.75 73.15 937.67 91.18 920.02 83.85 928.75 73.15"/>
      <polygon class="cls-3" points="928.55 43 936.96 60 920.32 53.09 928.55 43"/>
      <polygon class="cls-3" points="928.35 12.86 936.25 28.83 920.62 22.34 928.35 12.86"/>
    </g>
    <g>
      <polygon class="cls-3" points="894.23 660.01 913.37 698.69 875.5 682.97 894.23 660.01"/>
      <polygon class="cls-3" points="894.03 629.87 912.66 667.52 875.8 652.22 894.03 629.87"/>
      <polygon class="cls-3" points="893.83 599.73 911.95 636.34 876.1 621.46 893.83 599.73"/>
      <polygon class="cls-3" points="893.63 569.59 911.24 605.17 876.4 590.71 893.63 569.59"/>
      <polygon class="cls-3" points="893.43 539.44 910.53 573.99 876.7 559.95 893.43 539.44"/>
      <polygon class="cls-3" points="893.23 509.3 909.81 542.82 877 529.19 893.23 509.3"/>
      <polygon class="cls-3" points="893.03 479.16 909.1 511.64 877.3 498.44 893.03 479.16"/>
      <polygon class="cls-3" points="892.83 449.01 908.39 480.46 877.59 467.68 892.83 449.01"/>
      <polygon class="cls-3" points="892.63 418.87 907.68 449.29 877.89 436.93 892.63 418.87"/>
      <polygon class="cls-3" points="892.43 388.73 906.97 418.11 878.19 406.17 892.43 388.73"/>
      <polygon class="cls-3" points="892.22 358.58 906.26 386.94 878.49 375.41 892.22 358.58"/>
      <polygon class="cls-3" points="892.02 328.44 905.55 355.76 878.79 344.66 892.02 328.44"/>
      <polygon class="cls-3" points="891.82 298.3 904.83 324.59 879.09 313.9 891.82 298.3"/>
      <polygon class="cls-3" points="891.62 268.15 904.12 293.41 879.39 283.15 891.62 268.15"/>
      <polygon class="cls-3" points="891.42 238.01 903.41 262.24 879.69 252.39 891.42 238.01"/>
      <polygon class="cls-3" points="891.22 207.87 902.7 231.06 879.99 221.64 891.22 207.87"/>
      <polygon class="cls-3" points="891.02 177.73 901.99 199.89 880.29 190.88 891.02 177.73"/>
      <polygon class="cls-3" points="890.82 147.58 901.28 168.71 880.59 160.12 890.82 147.58"/>
      <polygon class="cls-3" points="890.62 117.44 900.56 137.54 880.89 129.37 890.62 117.44"/>
      <polygon class="cls-3" points="890.42 87.3 899.85 106.36 881.19 98.61 890.42 87.3"/>
      <polygon class="cls-3" points="890.22 57.15 899.14 75.18 881.49 67.86 890.22 57.15"/>
      <polygon class="cls-3" points="890.02 27.01 898.43 44.01 881.78 37.1 890.02 27.01"/>
      <polygon class="cls-3" points="889.82 -3.13 897.72 12.83 882.08 6.34 889.82 -3.13"/>
    </g>
  </g>
</svg>