<?xml version="1.0" encoding="UTF-8"?>
<svg xmlns="http://www.w3.org/2000/svg" xmlns:xlink="http://www.w3.org/1999/xlink" viewBox="0 0 3168.51 1262.4">
  <defs>
    <style>
      .cls-1 {
        clip-path: url(#clippath);
      }

      .cls-2 {
        fill: none;
      }

      .cls-2, .cls-3, .cls-4, .cls-5, .cls-6, .cls-7, .cls-8, .cls-9, .cls-10, .cls-11, .cls-12, .cls-13 {
        stroke-width: 0px;
      }

      .cls-14 {
        mix-blend-mode: overlay;
        opacity: .5;
      }

      .cls-15 {
        clip-path: url(#clippath-1);
      }

      .cls-3 {
        fill: red;
      }

      .cls-3, .cls-4, .cls-5, .cls-6, .cls-13 {
        fill-rule: evenodd;
      }

      .cls-4 {
        fill: #ffb000;
      }

      .cls-5 {
        fill: #ffec00;
      }

      .cls-6 {
        fill: #ff6a00;
      }

      .cls-16 {
        isolation: isolate;
      }

      .cls-8 {
        fill: #7acc00;
      }

      .cls-9 {
        fill: #353535;
      }

      .cls-10 {
        fill: #262626;
      }

      .cls-11, .cls-17 {
        fill: #fff;
      }

      .cls-12 {
        fill: #ffeb3b;
      }

      .cls-18 {
        filter: url(#drop-shadow-1);
        font-family: BadaBoomBB, 'BadaBoom BB';
        font-size: 581.51px;
      }

      .cls-17 {
        stroke: #000;
        stroke-miterlimit: 10;
        stroke-width: 12.04px;
      }
    </style>
    <clipPath id="clippath">
      <polygon class="cls-2" points="2745.04 1100.3 217.78 1100.3 2759.03 356.18 2745.04 1100.3"/>
    </clipPath>
    <clipPath id="clippath-1">
      <polygon class="cls-2" points="2745.04 1100.3 217.78 1100.3 2759.03 356.18 2745.04 1100.3"/>
    </clipPath>
    <filter id="drop-shadow-1" filterUnits="userSpaceOnUse">
      <feOffset dx="27" dy="9"/>
      <feGaussianBlur result="blur" stdDeviation="0"/>
      <feFlood flood-color="#fff" flood-opacity="1"/>
      <feComposite in2="blur" operator="in"/>
      <feComposite in="SourceGraphic"/>
    </filter>
  </defs>
  <g class="cls-16">
    <g id="Layer_1" data-name="Layer 1">
      <g>
        <g>
          <polygon class="cls-8" points="156.63 1109.07 2768.02 344.41 2753.64 1109.07 156.63 1109.07"/>
          <path class="cls-7" d="M2759.03,356.18l-14,744.12H217.78L2759.03,356.18M2777.02,332.64l-22.91,6.71L212.85,1083.47l-117.37,34.37h2666.77l.32-17.21,14-744.12.45-23.87h0Z"/>
        </g>
        <g class="cls-1">
          <g class="cls-14">
            <path class="cls-12" d="M1877.18,1197.06l.08-.28-.4.18c.11.04.22.07.32.11ZM1877.26,1196.78l1.42-.62-.4-2.9-1.02,3.52ZM1877.35,1186.46L1332.54-39.63c-57.13,26.52-112.93,57.52-165.85,92.13l710.8,1135.01-.14-1.05ZM1881.17,1184.56L2430.94-36.87c-57.15-26.87-116.69-49.73-176.98-67.96l-373.13,1289.27c.11.04.22.08.33.12ZM1880.42,1184.3c.08.03.17.05.26.08l188.55-1330.59c-61.66-9.13-124.63-13.84-187.15-14l-3.23,1344.88.47,3.42,1.09-3.78ZM1879.42,1188.43h-.05v.09s.05-.09.05-.09ZM1694.95-147.17c-62.33,8.91-124.54,22.5-184.92,40.41l367.31,1293.18-182.39-1333.59ZM1878.82,1197.45l.02-.1-.02-.11v.21ZM1876.74,1192.14l-3.88,1.09c.08.2.16.41.24.6l3.64-1.69ZM3187.61,1001.61l-1302.19,187.26v-.45s-.22,0-.22,0l1262.75-375.66c-17.61-61.81-39.77-122.87-65.88-181.49l-1197.23,557.1s0,.03.01.05l-.45.15.23-.15h-1.57l1.51-.71c.09.19.16.39.24.59l1106.99-726.42c-33.8-53.88-71.72-105.76-112.68-154.2l-997.2,880.73h-.8l2.5-2.38-1.08.72,864-1015.1c-47.2-42-97.75-80.9-150.27-115.62l-714.5,1128.77c.06.03.12.06.19.08l-1.84,3.46.17-1.2-.89,1.4.04.25-.25.17.12-.26-.25.35.18-.64h-.38l-.13.85-.52-1.82-.09.68-.73-1.64.69,1.93h-.14l.07.26-.4-.47L1015.75,167.51c-47.33,41.73-92.16,87.3-133.25,135.44l993.35,885.48h-.7l-2.02-.95,1.44.95h-.45L769.28,456.39c-34.19,53.91-64.85,110.78-91.11,169.02l1195.2,563.01h-.99l-1260.83-382.21c-17.86,61.55-31.53,125.02-40.61,188.64l1298.19,193.57,3.48,4.06c-.03-.09-.06-.19-.09-.29l2.38-.4-.7.46h.05s-1.41.89-1.41.89c-.05-.14-.11-.29-.16-.43l-.09.59.28-.08s-.01-.03-.02-.04l2.3-1.08,2.25-.32-3.36,3.58.74-.48,1.02,1.62,1.6-3.33-.15,1.09.85-1.55.06.12.07-.12v-.08s.42-.58.42-.58l-.11.37.08-.05-.3.82.38.85.16-1.83v2.17s.32.72.32.72l.22-1.56.99,3.51c-.1.03-.21.06-.3.08l.75,1.68,1.73,3.86-2.42-8.84.11.74-.75-1.77.04-.29.18.21-.14-.49.03-.21-.15-.21.19-.05.11.04v-.03s.78.55.78.55l.35.55h0s1.91,3.05,1.91,3.05l1.12-1.04-2.12-1.73,1.07.7-2.17-2,3.41,1.61.03-.85-1.22-.57-.55-.26h1.16l-1.99-.6,3.13-.46.74.11c-.03.18-.08.51-.19.95h1315.35v-1.12c0-63.14-4.35-126.75-12.93-189.07ZM1876.17,1189.48l.28.18-.88-.27.6.09ZM1873.19,1190.63l-.96-.14c.04-.29.12-.77.29-1.34l3.55,1.07-2.88.41ZM1876.69,1190.12l-.71-.47.93.43-.22.03ZM1877.1,1191.2l.25-.11.07.16-.32-.05ZM1877.95,1190.84v-.03s.03-.02.03-.02l-.03.04ZM1878.05,1191.03l-.03-.02.12-.11h.01s-.1.13-.1.13ZM1878.5,1190.94l.06.02-.07.02v-.04ZM1878.24,1191.05v-.02s.02.01.02.01h-.02ZM1878.29,1190.94l.02-.05.15.1-.11.03-.05-.08ZM1878.41,1191.27v-.04s.09.1.09.1l-.09-.06ZM1878.53,1191.31l-.09-.14.05-.16.2.13h0s.08.06.08.06l-.04.05.03-.03-.04.02v.02s.06.2.06.2l-.09-.16.03-.04-.03.03v-.04l-.15.07ZM1878.76,1191.63v.03s-.05-.05-.05-.05h.02s.03.03.03.03ZM1878.84,1191.8v.04l-.16.35.15-.39-.02-.03.03-.04v.09s0-.02,0-.02ZM1878.86,1189.71v-.02s.06.09.06.09l-.06-.08ZM1879.14,1190.3l-.04.11-.05-.12.04-.02-.05-.02.11-.04v.03s.04-.02.04-.02l.08.13-.14-.06ZM1879.32,1190.53l.04-.04.04.06-.07-.03ZM1879.47,1190.44h0s-.05-.01-.05-.01l.02-.02-.17-.21.34-.11v.04s-.07.16-.07.16l.08-.1.03.23-.08.07-.1-.06ZM1879.61,1190.52l.05-.08v.11s-.05-.03-.05-.03ZM1880.6,1190.34l-.8.24.05-.34-.17.14.2-.37h.03s.34-.13.34-.13l-.18.16.88.13-.34.16ZM1881.55,1191.86l-.41-.06h.21l.2.06ZM1882.09,1189.35l1.82-.54-.87.4-.95.14ZM1883.54,1189.14l1.33-.62c.05.14.09.27.13.41l-1.46.21ZM1875.8,1196.54l-.02-.03v.02s.01,0,.02.01ZM1884.55,1193.7l-.46-.22-.04,1.19c.14-.24.31-.56.5-.97ZM1882.8,1195.99l-.03-.05-.2.19c.09-.06.17-.11.23-.14ZM1883.94,1194.85l-.05.05h.01s.03-.03.04-.05Z"/>
          </g>
        </g>
        <g class="cls-15">
          <g>
            <g>
              <polygon class="cls-7" points="2793.81 727.57 2793.81 742.67 2403.93 898.91 2793.81 727.57"/>
              <polygon class="cls-7" points="2435.91 790.73 2793.81 574.71 2793.81 600.38 2560.67 726.93 2435.91 790.73"/>
              <polygon class="cls-7" points="2793.81 908.04 2793.81 916.06 2613 954.31 2793.81 908.04"/>
              <polygon class="cls-7" points="2620.96 791.47 2793.81 712.12 2793.81 721.45 2620.96 791.47"/>
              <polygon class="cls-7" points="2793.81 779.59 2793.81 784.19 2756.89 796.85 2793.81 779.59"/>
              <polygon class="cls-7" points="2793.81 845.12 2793.81 851.9 2654.85 890.34 2793.81 845.12"/>
              <polygon class="cls-7" points="2446.1 923.39 2793.81 796.93 2793.81 808.67 2446.1 923.39"/>
              <polygon class="cls-7" points="2793.81 689.7 2793.81 700.78 2569.71 799.34 2793.81 689.7"/>
              <polygon class="cls-7" points="2463.88 1083.55 2423.62 1081.63 2616.34 1056.78 2793.81 1033.49 2793.81 1061.49 2463.88 1083.55"/>
              <polygon class="cls-7" points="2498.1 1024.54 2793.81 970.8 2793.81 990.89 2547.17 1023.64 2498.1 1024.54"/>
              <polygon class="cls-7" points="2793.81 362.48 2793.81 373.22 2761.75 397.45 2793.81 362.48"/>
              <polygon class="cls-7" points="2669.81 439.26 2495.71 576.7 2793.81 315.37 2793.81 341.61 2669.81 439.26"/>
              <polygon class="cls-7" points="2472.41 652.32 2686.51 478.77 2793.81 391.77 2793.81 415.21 2472.41 652.32"/>
              <polygon class="cls-7" points="2776.86 476.86 2793.81 462.52 2793.81 481.6 2563.7 634.85 2776.86 476.86"/>
              <polygon class="cls-7" points="2668.35 620.02 2793.81 537.68 2793.81 557.25 2590.78 676.4 2668.35 620.02"/>
            </g>
            <g>
              <path class="cls-11" d="M1917.74,627.84c-6.55-8.99-9.62-18.5-7.35-28.93,1.68-7.72,5.93-13.88,12.48-18.53,12.46-8.84,30.65-7.51,43.08,3.19,12.39,10.66,15.78,28.03,7.85,40.75-4.88,7.83-11.99,12.95-21.55,14.79-9.26,1.78-18.06-.12-26.74-4.79,6.9,9.33,10.04,19.11,7.82,29.86-1.61,7.78-5.94,13.94-12.26,18.72-11.92,9.02-30.45,8.48-42.86-1.08-14.79-11.41-18.23-27.29-9.26-45.85-8.39,5.82-17.04,8.44-26.87,6.95-9.96-1.5-18.08-6.17-24.25-14.06-9.86-12.6-9.25-30.47,1.45-41.51,11.02-11.37,29.24-13.45,43.49-4.72,8.22,5.04,13.73,12.1,16.16,21.13,2.43,9,.71,17.29-4.05,25.9,13.97-9.19,27.83-9.85,42.85-1.83Z"/>
              <path class="cls-11" d="M1969.44,579.08c-12.49-10.81-14.07-28.68-3.54-40.09,10.61-11.49,29.79-12.01,42.37-1.15,12.38,10.7,13.95,28.79,3.47,40.15-10.67,11.56-29.63,12.05-42.3,1.09Z"/>
              <path class="cls-11" d="M2016.43,632.04c12.61,10.76,14.25,28.5,3.7,39.97-10.65,11.57-29.75,12.14-42.27,1.25-12.4-10.78-13.82-28.64-3.19-40.06,10.64-11.43,29.13-11.95,41.77-1.16Z"/>
              <path class="cls-11" d="M1971.44,681.33c12.14,10.59,13.59,28.02,3.25,39.13-10.44,11.22-29.1,11.75-41.38,1.18-12.24-10.55-13.71-28.62-3.23-39.62,10.65-11.16,28.99-11.47,41.35-.69Z"/>
              <path class="cls-11" d="M1778.22,640.5c10.26-11,28.24-11.57,40.37-1.3,12.3,10.42,13.81,27.84,3.4,39.01-10.28,11.03-28.13,11.58-40.35,1.25-12.38-10.47-13.9-27.73-3.42-38.96Z"/>
              <path class="cls-11" d="M1835.12,724.5c-11.94-10.27-13.36-27.17-3.2-38.12,10.11-10.89,27.9-11.5,39.89-1.36,12.12,10.26,13.54,27.55,3.17,38.55-10.22,10.83-27.88,11.25-39.86.94Z"/>
              <path class="cls-11" d="M2059.59,585.32c11.44,9.76,12.92,25.73,3.33,36.17-9.52,10.37-26.46,11.05-37.88,1.53-11.5-9.59-13.02-26.39-3.33-36.7,9.66-10.28,26.47-10.72,37.88-.99Z"/>
              <path class="cls-11" d="M1762.77,595.43c11.02,9.34,12.53,24.72,3.42,34.79-9.17,10.13-25.91,10.69-36.85,1.23-10.75-9.3-12.1-25.11-2.98-34.94,9.19-9.91,25.44-10.39,36.42-1.08Z"/>
              <path class="cls-11" d="M1922.2,733.94c10.15,8.64,11.41,22.87,2.83,31.99-8.54,9.08-23.69,9.45-33.55.83-9.7-8.48-10.94-22.74-2.75-31.76,8.34-9.19,23.36-9.67,33.47-1.06Z"/>
              <path class="cls-11" d="M2069.64,540.18c8.32-8.9,22.63-9.3,32.48-.9,9.99,8.52,11.13,22.48,2.56,31.47-8.3,8.7-23.04,8.97-32.62.6-9.62-8.4-10.69-22.31-2.41-31.17Z"/>
              <path class="cls-11" d="M2065.76,682.24c9.76,8.42,10.95,22.23,2.69,31.11-8.2,8.82-22.89,9.3-32.61,1.08-9.85-8.33-11.07-22.9-2.67-31.61,8.44-8.74,22.83-9,32.59-.58Z"/>
              <path class="cls-11" d="M2081.9,665.01c-9.28-8-10.35-21.13-2.43-29.57,7.82-8.33,21.96-8.68,31.02-.78,9.11,7.94,10.18,21.4,2.36,29.7-7.9,8.38-21.65,8.67-30.95.64Z"/>
              <path class="cls-11" d="M1989.21,732.63c7.74-8.33,21.29-8.83,30.52-1.12,9.35,7.8,10.53,21.09,2.62,29.59-7.93,8.52-21.57,8.83-30.88.71-9.05-7.9-10.05-20.79-2.27-29.17Z"/>
              <path class="cls-11" d="M1739.78,694.78c7.28-7.75,20.1-8.11,28.51-.81,8.47,7.34,9.42,19.47,2.14,27.26-7.29,7.81-19.81,8.14-28.41.74-8.55-7.36-9.55-19.42-2.24-27.2Z"/>
              <path class="cls-11" d="M2128.56,614.44c-8.05-6.99-9.03-18.63-2.17-25.9,6.85-7.25,19.15-7.62,27.17-.81,8.22,6.98,9.15,18.96,2.05,26.33-7.05,7.3-18.89,7.47-27.05.38Z"/>
              <path class="cls-11" d="M1823.26,766.18c-6.88,7.37-18.85,7.7-27.04.74-8.21-6.98-9.3-18.36-2.47-25.83,6.93-7.59,19.38-7.98,27.48-.87,7.96,6.99,8.87,18.63,2.03,25.96Z"/>
              <path class="cls-11" d="M2118.09,494.04c6.78-7.35,18.46-7.82,26.55-1.06,8.23,6.87,9.22,18.37,2.22,25.81-6.8,7.23-18.6,7.53-26.59.67-7.98-6.85-8.95-18.09-2.19-25.42Z"/>
              <path class="cls-11" d="M1686.68,649.97c6.74-7.4,18.38-7.95,26.54-1.24,8.28,6.8,9.36,18.34,2.41,25.8-6.77,7.28-18.55,7.66-26.57.86-8.03-6.81-9.09-18.06-2.38-25.41Z"/>
              <path class="cls-11" d="M1947.45,784.54c6.2-6.58,16.78-6.87,24.08-.67,7.47,6.34,8.32,16.67,1.94,23.42-6.16,6.52-16.88,6.82-24.12.68-7.43-6.3-8.27-16.68-1.91-23.43Z"/>
              <path class="cls-11" d="M2092.44,733.44c5.83-6.17,15.85-6.45,22.66-.61,6.96,5.96,7.66,15.77,1.57,22.06-5.89,6.08-15.94,6.18-22.68.21-6.76-5.98-7.43-15.43-1.55-21.66Z"/>
              <path class="cls-11" d="M1660.03,627.21c-5.81,6.2-15.8,6.49-22.65.65-6.87-5.85-7.74-15.36-1.99-21.65,5.89-6.44,16.14-6.75,23.04-.69,6.71,5.9,7.42,15.48,1.6,21.69Z"/>
              <path class="cls-11" d="M2159.86,684.34c6.86,5.85,7.69,15.44,1.88,21.61-5.75,6.1-16.08,6.32-22.69.46-6.5-5.75-7.28-15.22-1.74-21.3,5.74-6.3,15.67-6.64,22.55-.77Z"/>
              <path class="cls-11" d="M2198.61,562.29c-5.59,6.19-15.28,6.67-22.05,1.1-6.99-5.76-7.93-15.28-2.11-21.51,5.63-6.03,15.55-6.38,22.17-.8,6.62,5.58,7.51,15.09,1.98,21.21Z"/>
              <path class="cls-11" d="M1873.98,809.37c-5.68,6.08-15.37,6.37-22.09.67-6.71-5.7-7.59-15-2.01-21.14,5.69-6.26,15.97-6.6,22.56-.75,6.51,5.77,7.19,15.16,1.53,21.22Z"/>
              <path class="cls-11" d="M2166.12,448.08c5.12-5.67,14.32-6.09,20.6-.95,6.58,5.38,7.52,14.17,2.15,20.05-5.2,5.68-14.3,6.17-20.64,1.1-6.37-5.09-7.35-14.41-2.12-20.2Z"/>
              <path class="cls-11" d="M2070.69,802.11c-5.12,5.53-13.99,5.83-20.13.68-6.3-5.28-7.1-14.17-1.77-19.66,5.16-5.32,14.38-5.48,20.27-.36,5.93,5.16,6.68,13.91,1.64,19.35Z"/>
              <path class="cls-11" d="M2185.23,656.77c-5.93-5.08-6.74-13.93-1.78-19.37,5.16-5.67,14.39-5.85,20.57-.4,5.99,5.29,6.63,13.82,1.44,19.27-5.13,5.38-14.27,5.61-20.23.5Z"/>
              <path class="cls-11" d="M2223.7,511.88c-5.22-4.44-5.84-11.64-1.41-16.32,4.35-4.6,12.25-4.75,17.18-.33,4.79,4.3,5.38,11.56,1.31,16.08-4.27,4.74-11.88,4.99-17.08.57Z"/>
              <path class="cls-11" d="M2231.1,589.88c4.32-4.5,11.69-4.61,16.61-.23,4.91,4.36,5.36,11.35,1.01,15.89-4.32,4.51-11.69,4.61-16.62.23-4.95-4.4-5.39-11.32-1-15.89Z"/>
              <path class="cls-11" d="M1717.38,748.56c5.01,4.16,5.78,10.8,1.77,15.39-4.07,4.67-11.66,5.02-16.56.78-4.73-4.09-5.35-11.19-1.36-15.56,4.03-4.42,11.23-4.69,16.15-.61Z"/>
              <path class="cls-11" d="M1647.77,703.43c4.08-4.34,10.95-4.57,15.74-.52,4.94,4.18,5.43,11.02,1.1,15.44-4.12,4.21-11.16,4.28-15.79.16-4.65-4.13-5.11-10.76-1.05-15.09Z"/>
              <path class="cls-11" d="M1907.43,837.52c3.95-4.17,10.66-4.27,15.17-.24,4.5,4.02,4.83,10.39.76,14.51-3.86,3.91-10.4,4.02-14.82.26-4.59-3.91-5.08-10.35-1.12-14.54Z"/>
              <path class="cls-11" d="M1755.48,795.55c3.66-4.13,10.11-4.44,14.64-.7,4.54,3.75,5.25,9.95,1.6,14.03-3.59,4.03-10.32,4.39-14.75.78-4.42-3.6-5.1-10.05-1.5-14.11Z"/>
              <path class="cls-11" d="M2007.44,849.03c-4.3-3.77-4.76-10.16-1.01-14.13,3.79-4.01,10.24-4.11,14.68-.24,4.41,3.84,4.91,10.09,1.12,14.05-3.73,3.91-10.53,4.05-14.79.32Z"/>
              <path class="cls-11" d="M2196.71,747.7c-4.15-3.57-4.69-9.36-1.24-13.15,3.4-3.73,9.68-4.03,13.81-.68,4.25,3.45,4.82,9.89,1.21,13.63-3.53,3.65-9.67,3.74-13.79.19Z"/>
              <path class="cls-11" d="M2150.67,783.4c3.23-3.59,9.36-3.88,13.37-.63,4.19,3.39,4.79,9.53,1.29,13.17-3.4,3.54-9.36,3.64-13.36.22-4-3.42-4.58-9.12-1.3-12.76Z"/>
              <path class="cls-11" d="M1596.65,671.94c-3.97-3.38-4.49-9.02-1.16-12.72,3.38-3.76,9.07-4.06,13.21-.7,4.32,3.51,4.88,9.26,1.26,13.05-3.41,3.58-9.35,3.74-13.31.37Z"/>
              <path class="cls-11" d="M2254.85,697.99c-3.16,3.48-9.02,3.65-12.71.38-3.56-3.17-3.97-8.4-.92-11.77,3.11-3.44,8.36-3.73,12.19-.67,4.03,3.22,4.67,8.52,1.45,12.06Z"/>
              <path class="cls-11" d="M2283.1,460.33c-2.77,3.18-8.21,3.53-11.83.75-3.79-2.91-4.52-8.32-1.56-11.68,2.81-3.19,8.19-3.54,11.8-.76,3.8,2.92,4.53,8.31,1.59,11.69Z"/>
              <path class="cls-11" d="M2290.4,543.14c3.67,3.16,3.99,8.33.72,11.63-3.1,3.12-8.25,3.2-11.76.18-3.68-3.16-4-8.29-.72-11.61,3.11-3.15,8.24-3.23,11.76-.2Z"/>
              <path class="cls-11" d="M2118.91,843.46c-2.84,2.9-7.51,2.94-10.8.09-3.3-2.86-3.7-7.27-.92-10.29,2.83-3.09,8.07-3.19,11.24-.2,3.03,2.85,3.25,7.58.48,10.41Z"/>
              <path class="cls-11" d="M1822.85,852.91c-2.84,2.9-7.51,2.94-10.8.09-3.3-2.86-3.7-7.27-.92-10.29,2.83-3.09,8.07-3.19,11.24-.2,3.03,2.85,3.25,7.58.48,10.41Z"/>
              <path class="cls-11" d="M2298.6,647.68c-2.51,2.72-6.71,2.88-9.68.37-2.96-2.51-3.32-6.55-.81-9.27,2.5-2.71,6.79-2.89,9.72-.4,2.93,2.48,3.27,6.6.77,9.31Z"/>
              <path class="cls-11" d="M1544.59,614.84c2.72-2.45,7.02-2.19,9.73.58,2.68,2.74,2.6,6.76-.19,9.26-2.72,2.44-7.11,2.19-9.74-.55-2.67-2.79-2.59-6.79.2-9.29Z"/>
              <path class="cls-11" d="M1965.77,894.28c-2.22-1.91-2.46-5.49-.52-7.48,2.02-2.07,5.49-2.03,7.77.09,2.14,2,2.35,4.93.5,6.99-1.94,2.17-5.49,2.35-7.75.4Z"/>
              <path class="cls-11" d="M2333.9,503.93c-2.02,2.12-5.56,2.19-7.76.16-2.17-2-2.29-5.53-.26-7.47,1.95-1.86,5.14-1.88,7.36-.03,2.45,2.03,2.73,5.18.66,7.35Z"/>
              <path class="cls-11" d="M1867.36,896.72c-1.96-1.63-2.26-4.79-.63-6.62,1.69-1.89,4.73-2,6.83-.24,2.09,1.75,2.41,4.69.73,6.54-1.61,1.78-4.98,1.93-6.93.32Z"/>
              <path class="cls-11" d="M2334.98,597.86c-1.88-1.78-1.98-4.82-.22-6.57,1.84-1.83,4.77-1.8,6.8.07,2.02,1.86,2.13,4.62.26,6.47-1.79,1.77-4.98,1.78-6.84.02Z"/>
              <path class="cls-11" d="M2318.46,409.01c-2-1.84-2.13-4.69-.3-6.5,1.74-1.72,5.02-1.71,6.88,0,1.91,1.78,2,4.72.19,6.53-1.88,1.87-4.72,1.86-6.77-.04Z"/>
              <path class="cls-11" d="M2071.36,890.49c-1.75,1.82-4.9,1.91-6.83.18-1.91-1.71-2.1-4.78-.39-6.57,1.79-1.87,4.72-1.91,6.79-.09,2.07,1.82,2.25,4.58.43,6.47Z"/>
              <path class="cls-11" d="M1661.94,802.58c1.44-1.55,4.17-1.61,5.91-.12,1.72,1.48,1.99,4.13.56,5.66-1.39,1.49-4.32,1.56-5.96.15-1.68-1.44-1.92-4.17-.51-5.69Z"/>
              <path class="cls-11" d="M1614.48,762.3c-1.43,1.47-4.36,1.49-5.97.04-1.64-1.47-1.83-4.22-.39-5.7,1.48-1.52,4.22-1.52,5.92,0,1.69,1.51,1.9,4.17.44,5.66Z"/>
              <path class="cls-11" d="M2259.74,789c-1.48,1.71-3.94,1.9-5.78.45-1.85-1.46-2.14-3.85-.68-5.55,1.41-1.64,4.08-1.87,5.83-.49,1.77,1.4,2.06,3.93.63,5.59Z"/>
              <path class="cls-11" d="M2213.4,838.02c-1.03-.16-2.83-.05-4.17-.77-1.51-.81-1.44-3.57-.09-4.57,1.37-1.02,2.94-1.14,4.46.08,1.5,1.21,1.7,3.34-.2,5.26Z"/>
              <path class="cls-11" d="M2298.6,741.31c.1-2.62-.31-4.4.35-5.61.77-1.43,2.61-1.55,4.26-.49,1.66,1.07,2.39,3.45,1,4.47-1.16.86-2.99.92-5.61,1.63Z"/>
              <path class="cls-11" d="M1715.33,849.5c1.64-2.06,3.94-2.2,5.38-.97,1.46,1.25,1.65,2.73.74,4.21-.9,1.46-3.58,1.96-4.68.62-.95-1.16-1.1-2.9-1.43-3.86Z"/>
              <path class="cls-11" d="M1554.98,717.49c.09-2.62-.34-4.4.31-5.62.76-1.43,2.6-1.57,4.25-.52,1.67,1.06,2.41,3.43,1.03,4.46-1.16.86-2.98.94-5.59,1.67Z"/>
              <path class="cls-11" d="M2417.75,400.37c1.9.4,3.47.31,3.94.94.52.7.33,2.2-.14,3.05-.2.36-2.26.3-2.75-.21-.66-.68-.61-1.97-1.05-3.78Z"/>
              <path class="cls-11" d="M1823.43,944.75c-.04-1.84-.51-3.32.02-3.8.62-.56,2.23-.55,3.19-.18.46.18.85,2.1.45,2.6-.56.69-1.91.78-3.66,1.38Z"/>
              <path class="cls-11" d="M2123.88,934.85c-1.93-.23-3.26-.04-4.03-.59-.58-.42-.88-2.39-.53-2.6.83-.53,2.37-.89,3.15-.46.71.39.79,1.89,1.41,3.66Z"/>
              <path class="cls-11" d="M2164.08,886.46c.19-1.8-.08-3.28.53-3.77.6-.48,2.28-.26,3.14.23.46.26.64,2.17.19,2.57-.69.61-2.03.57-3.86.97Z"/>
              <path class="cls-11" d="M2349.46,690.77c-1.95-.19-3.5.08-4.05-.5-.59-.62-.53-2.16-.17-3.06.15-.37,2.17-.52,2.7-.07.73.62.85,1.9,1.52,3.63Z"/>
              <path class="cls-11" d="M2389.7,642.37c.2-1.84-.08-3.33.52-3.78.65-.49,2.28-.31,3.17.16.44.23.62,2.15.16,2.6-.64.62-1.99.58-3.85,1.02Z"/>
              <path class="cls-11" d="M2439.13,593.73c-1.91-.42-3.48-.34-3.94-.97-.52-.7-.32-2.2.15-3.04.2-.36,2.26-.29,2.76.22.65.68.6,1.97,1.03,3.79Z"/>
              <path class="cls-11" d="M2377.2,454.03c-1.88-.46-3.21-.44-3.93-1.07-.52-.46-.58-2.4-.21-2.58.9-.44,2.5-.66,3.18-.16.67.49.55,1.98.95,3.81Z"/>
              <path class="cls-11" d="M1922.04,941.1c.4-1.77.32-3.07.96-3.68.47-.45,2.5-.31,2.75.11.5.85.71,2.39.2,3.05-.43.57-2.01.32-3.91.52Z"/>
              <path class="cls-11" d="M1769.73,894.36c1.75.21,3.25.02,3.55.49.52.82.58,2.16.23,3.03-.15.38-2.27.51-2.71.07-.66-.68-.64-1.96-1.07-3.59Z"/>
              <path class="cls-11" d="M2430.58,499.34c-1.75-.27-2.9-.14-3.63-.63-1.28-.85-1.38-2.24-.11-3.01.69-.42,2.38-.45,2.79,0,.64.71.58,1.99.95,3.63Z"/>
              <path class="cls-11" d="M2025.2,937.97c-1.73-.21-3.06-.04-3.85-.58-.51-.36-.63-2.38-.25-2.58.84-.45,2.25-.56,3.14-.16.53.24.53,1.69.96,3.33Z"/>
              <path class="cls-11" d="M1502.15,666.28c1.75.31,2.91.22,3.62.72,1.24.88,1.33,2.28.04,3.02-.7.4-2.39.38-2.81-.09-.63-.72-.53-2-.86-3.65Z"/>
              <path class="cls-11" d="M2380.8,548.11c.57-1.95.58-3.24,1.26-3.86.43-.4,2.21-.15,2.73.39.51.51.59,2.21.12,2.59-.71.59-2.05.5-4.11.88Z"/>
              <path class="cls-11" d="M2364.67,354.88c1.68.43,3.05.43,3.73,1.08.46.44.26,2.45-.17,2.61-.91.34-2.34.22-3.2-.29-.47-.28-.22-1.74-.36-3.4Z"/>
              <path class="cls-11" d="M1448.3,625.03c.34-2,.2-3.28.79-3.97.39-.45,2.16-.41,2.72.06.57.48.89,2.16.48,2.59-.63.67-1.97.72-3.99,1.32Z"/>
            </g>
          </g>
        </g>
        <g>
          <polygon class="cls-6" points="2028.46 428.55 2002.88 446.61 2135.19 586.28 2139.16 659.47 2021.21 700.29 2159.87 793.24 2223.65 736.59 2215.25 470.28 2028.46 428.55 2028.46 428.55"/>
          <polygon class="cls-3" points="2403.31 290.12 2479.97 287.6 2511.01 391.29 2437.13 463.8 2471.31 473.1 2505.34 540.69 2308.08 703.29 2358.61 709.91 2389.15 757.41 1938.92 989.49 2249.6 713.54 2159.67 677.04 2337.91 470.8 2264.05 424.06 2403.31 290.12 2403.31 290.12"/>
          <path class="cls-13" d="M2435.4,289.06c.53,1.98,1.13,4.02,1.82,6.15l18.45-2.3,39.49,96.33-68.03,71.04,11.84,13.93,15.95,7.07,36.9,58.14-195.62,158,13,4.94,196.14-161.67-34.03-67.6-34.18-9.3,73.88-72.5-31.04-103.69-44.57,1.46h0ZM2313.51,704l28.25,10.72,30.36,40.55-433.2,234.21,450.24-232.08-30.55-47.5-45.1-5.91h0Z"/>
          <polygon class="cls-13" points="2238.66 139.91 2000.27 445.51 2180.82 522.01 2021.21 700.29 2141.62 741.38 1938.92 989.49 2358.61 709.91 2262.64 661.72 2471.31 473.1 2368.48 411.48 2479.97 287.6 2238.66 139.91 2238.66 139.91"/>
          <polygon class="cls-4" points="2455.67 292.92 2250.2 179.74 2043.48 433.51 2228.47 514.54 2055.33 691.54 2179.26 733.5 1938.92 989.49 2326.17 712.21 2232.21 665.85 2438.97 474.21 2339.89 419.81 2455.67 292.92 2455.67 292.92"/>
          <polygon class="cls-5" points="2310.37 212.89 2250.2 179.74 2043.48 433.51 2228.47 514.54 2055.33 691.54 2179.26 733.5 1938.92 989.49 2223.19 721.84 2103 679.41 2289.38 488.61 2127.74 416.29 2310.37 212.89 2310.37 212.89"/>
        </g>
        <text class="cls-18" transform="translate(147.81 1105.68)"><tspan x="0" y="0">ABHISHEK</tspan></text>
        <g>
          <g>
            <path class="cls-17" d="M1234.91,1126.18s82.45,55.44,119.87,29.27c0,0,11.97-52.34,61.37-48.6,0,0-19.46-13.08-41.91-1.87,0,0,25.44-24.3,61.37-11.22,0,0,22.45,18.69,28.44,48.6,0,0,76.33-102.81,128.72-41.12,0,0,25.44-42.99,58.37-39.25,32.93,3.74,31.43,52.34,31.43,52.34l14.97,7.48s14.97-24.3,38.92-18.69c0,0,16.46-50.47,62.86-48.6l-1.5-9.35s22.45-3.74,43.41,14.95c0,0,10.48-39.25,40.41-61.69,0,0,55.38-11.22,74.84,46.73,0,0,19.46-42.99-40.41-74.77,0,0,47.9-14.95,71.84,16.82,23.95,31.78,25.44,44.86,25.44,44.86l41.91-18.69,37.42,9.35s7.48-99.07,106.27-112.15l16.46-11.22,29.93,13.08,50.89-24.3,40.41,7.48,23.95,26.17s-38.92,18.69-38.92,76.64c0,0,23.95-48.6,65.86-59.82,41.91-11.22,59.87,22.43,59.87,22.43l8.98,24.3s17.96-29.91,49.39-39.25c31.43-9.35,68.85,1.87,82.32,18.69,0,0-67.35-7.48-74.84,44.86,0,0,35.92-31.78,65.86-26.17,29.94,5.61,47.9,61.69,38.92,102.81,0,0,32.93-28.04,73.34-11.22,40.41,16.82,74.97,39.63,37.55,73.27l-440.97-15.13s36.17-44.13,39.71-58.15c0,0-28.44,52.34-79.33,65.42-50.89,13.08-92.8-7.48-92.8-7.48l-25.44,18.69-34.43,13.08,25.45-39.25s-80.83,59.82-136.2-3.74c0,0-61.37,76.64-119.74,20.56,0,0,14.97-14.95,16.46-54.21,0,0-11.97,54.21-73.34,59.82,0,0,14.97,22.43,28.44,20.56,13.47-1.87-37.42,11.22-49.39,5.61-11.97-5.61-7.48,13.08-44.9,11.22-37.42-1.87-62.86-11.22-62.86-11.22l-49.39-1.87s-28.44-39.25-47.9-35.52c-19.46,3.74-22.45,5.61-23.95,14.95-1.5,9.35,2.99,24.3,2.99,24.3l-98.79-3.74s-52.39,44.86-94.3,9.35c0,0-25.45-5.61-34.43,1.87-8.98,7.48-72.42-36.59-72.42-36.59,0,0,5.3.48-27.46-17.83"/>
            <path class="cls-17" d="M2783.08,758.7s26.92,82.71,0,157.02c0,0,29.07,12.62,21.54,56.08,0,0,22.61-22.43,50.61-23.83,0,0-5.38-39.25,19.38-61.69,24.77-22.43,44.15-16.82,48.45-5.61,4.31,11.22,5.38-36.45-43.07-36.45s-61.38,30.84-61.38,30.84c0,0-1.08-81.31-35.53-116.36Z"/>
          </g>
          <g>
            <path class="cls-11" d="M2632.94,829.24c-36.81,41.79-32.44,103.68,9.09,140.41-1.96,31,10.86,62.47,37.54,84.03,17.55,14.19,38.5,21.96,59.76,23.63,5.3,19.8,16.82,38.27,34.37,52.46,44.46,35.94,110.7,30.89,148.73-11.04,40.23.32,80.31-15.87,108.29-47.63,49.88-56.63,42.4-141.27-16.72-189.06-14.74-11.91-31.3-20.41-48.62-25.57-1.81-35.93-18.58-71.07-49.54-96.1-59.11-47.78-147.47-40.61-197.35,16.02-4.79,5.44-9.04,11.14-12.78,17.04-27.28,2.09-53.72,14.2-72.77,35.82Z"/>
            <path class="cls-10" d="M2923.37,751.82c30.04,24.28,49.1,59.09,53.07,96.45,16.41,5.82,31.55,14.29,45.09,25.23,63.94,51.68,72.06,143.56,18.11,204.81-28.07,31.86-68.65,50.48-112.01,51.56-42.56,42.82-113.85,46.93-161.46,8.45-16.76-13.55-29.05-30.98-35.87-50.76-21.5-3.11-41.5-11.78-58.26-25.33-26.93-21.77-42.34-54.35-41.87-88.01-42.73-41.39-45.76-107.22-6.16-152.19,19.17-21.76,45.57-35.53,74.86-39.16,3.29-4.77,6.87-9.36,10.69-13.69,53.95-61.25,149.86-69.03,213.8-17.35ZM2954.12,864.82l-.39-7.81c-1.71-34.04-18.27-66.15-45.41-88.1-54.1-43.73-135.26-37.15-180.91,14.68-4.3,4.88-8.24,10.14-11.72,15.63l-3.1,4.89-5.95.46c-25.37,1.94-48.38,13.26-64.78,31.89-32.72,37.14-29.16,92.04,8.08,124.98l4.07,3.6-.33,5.29c-1.82,28.9,10.36,56.17,33.42,74.82,15.11,12.21,33.5,19.49,53.19,21.03l8.29.65,2.06,7.72c4.9,18.33,15.48,34.48,30.59,46.69,39.29,31.76,98.68,27.35,132.39-9.83l3.53-3.89,5.38.04c38.37.31,74.56-15.6,99.27-43.66,45.65-51.83,38.78-129.57-15.33-173.3-13.21-10.68-28.2-18.57-44.56-23.44l-7.79-2.32Z"/>
            <path class="cls-9" d="M2966.67,948.28s41.09-54.5-9.41-95.29c-57.63-46.55-101.21-22.07-101.21-22.07,0,0,122.54,13.64,110.61,117.36Z"/>
            <path class="cls-10" d="M2870.83,1043.32s-51.3,4.14-82.87-56.41c-28.46-54.57-26.55-85.58-26.55-85.58,0,0-25.57,62.23,22.51,115.74,38.06,42.36,86.92,26.25,86.92,26.25Z"/>
            <polygon class="cls-11" points="2739.81 1080.86 2414.95 1141.78 2643.67 964.55 2728.86 984.4 2739.81 1080.86"/>
            <polygon class="cls-10" points="2414.95 1141.78 2795.79 1020.84 2789.95 993.71 2414.95 1141.78"/>
            <polygon class="cls-10" points="2414.95 1141.78 2750.07 1096.12 2749.6 1068.43 2414.95 1141.78"/>
            <polygon class="cls-10" points="2414.95 1141.78 2653.63 962.37 2628.64 955.35 2414.95 1141.78"/>
            <path class="cls-10" d="M2712.59,804.11s-19.21,37.88-20.06,60.23c0,0-10.07-25.72,6.34-81.47l13.71,21.24Z"/>
            <path class="cls-10" d="M2917.15,1107.51s18.72-23.44,19.97-39.85c0,0,10.25,33.7-4.52,52.35l-15.45-12.49Z"/>
            <path class="cls-10" d="M2749.6,1068.43l-.09-20.47s-11.86,16.23-15.52,27.91c-3.67,11.68,8.49,11.1,8.49,11.1l7.13-18.54Z"/>
            <path class="cls-10" d="M2506.68,1090.09l212.63-118.2s-68.17,30.18-212.63,118.2Z"/>
          </g>
          <g>
            <path class="cls-11" d="M2309.56,892.18c-9.97,36.55,14.51,73.01,54.99,82.95,9.5,19.51,29.01,34.86,54.31,40.01,16.64,3.39,33.32,1.85,48.07-3.52,10.43,10.49,24.55,18.31,41.19,21.7,42.16,8.59,84.56-14.38,95.3-51.38,26.93-11.88,48.01-33.79,55.59-61.57,13.52-49.53-20.97-98.94-77.03-110.35-13.98-2.85-27.97-3.06-41.32-1.01-13.73-21.38-37.16-37.8-66.52-43.78-56.06-11.42-112.46,19.48-125.98,69.01-1.3,4.76-2.14,9.51-2.58,14.23-17.46,9.46-30.86,24.79-36.03,43.7Z"/>
            <path class="cls-10" d="M2476.18,757.76c28.49,5.8,53.33,21.32,68.99,42.93,12.97-1.38,26.01-.75,38.85,1.86,60.63,12.35,98.07,65.98,83.45,119.55-7.6,27.87-28.17,51.41-56.7,65.08-13.45,38.91-59.53,62.81-104.68,53.62-15.89-3.24-30.16-10.18-41.6-20.21-15.42,4.56-31.77,5.27-47.67,2.03-25.54-5.2-47.16-20.46-58.58-41.14-42.91-12.43-67.88-51.7-57.14-91.03,5.19-19.03,18-35.36,36.25-46.37.53-3.9,1.32-7.77,2.35-11.57,14.62-53.57,75.84-87.11,136.47-74.76ZM2536.06,817.49l-2.99-4.65c-13.01-20.26-35.23-34.89-60.97-40.13-51.31-10.45-103.11,17.93-115.48,63.26-1.16,4.27-1.96,8.66-2.37,13.06l-.36,3.91-3.81,2.06c-16.24,8.8-27.63,22.62-32.07,38.9-8.86,32.49,12.64,64.92,48.95,73.84l3.96.97,1.62,3.33c8.86,18.19,26.48,31.17,48.35,35.62,14.33,2.92,29.12,1.84,42.79-3.13l5.75-2.09,4.07,4.09c9.66,9.71,22.34,16.39,36.66,19.31,37.26,7.59,75.31-12.93,84.83-45.74l1-3.43,3.6-1.59c25.69-11.33,44.26-31.9,50.96-56.44,12.37-45.33-19.31-90.71-70.61-101.16-12.53-2.55-25.27-2.86-37.88-.93l-6.01.92Z"/>
            <path class="cls-9" d="M2573.51,864.65s8.4-45.59-39.48-55.33c-54.64-11.11-75.16,16.91-75.16,16.91,0,0,86.44-28.46,114.64,38.42Z"/>
            <path class="cls-10" d="M2542.75,951.42s-32.75,17.92-74.9-9.55c-37.99-24.76-47.52-44.25-47.52-44.25,0,0,4.64,45.65,55.34,63.87,40.14,14.43,67.09-10.07,67.09-10.07Z"/>
            <polygon class="cls-11" points="2468.5 1013.66 2273.17 1148.34 2363.87 971.54 2427.57 958.08 2468.5 1013.66"/>
            <polygon class="cls-10" points="2273.17 1148.34 2484.89 960.23 2471.55 945.42 2273.17 1148.34"/>
            <polygon class="cls-10" points="2273.17 1148.34 2480.65 1019.89 2470.68 1003.13 2273.17 1148.34"/>
            <polygon class="cls-10" points="2273.17 1148.34 2369.74 967.22 2350.65 970.43 2273.17 1148.34"/>
            <path class="cls-10" d="M2353.9,852.94s.4,28.88,7.62,42.78c0,0-15.68-12.67-24.17-51.62l16.54,8.85Z"/>
            <path class="cls-10" d="M2596,976.68s4.31-19.92-.58-30.32c0,0,18.58,17.49,15.23,33.3l-14.65-2.98Z"/>
            <path class="cls-10" d="M2470.68,1003.13l-7.2-12.46s-2.25,13.46-.62,21.69c1.63,8.23,9.53,4.22,9.53,4.22l-1.71-13.45Z"/>
            <path class="cls-10" d="M2316.3,1089.27l100.55-135.96s-34.93,38.88-100.55,135.96Z"/>
          </g>
        </g>
      </g>
    </g>
  </g>
</svg>