<?xml version="1.0" encoding="UTF-8"?>
<svg id="Layer_1" data-name="Layer 1" xmlns="http://www.w3.org/2000/svg" viewBox="0 0 3592.2 861.82">
  <defs>
    <style>
      .cls-1 {
        fill-rule: evenodd;
      }

      .cls-1, .cls-2, .cls-3, .cls-4 {
        stroke-width: 0px;
      }

      .cls-1, .cls-3 {
        fill: #fff;
      }

      .cls-4 {
        fill: #046e38;
      }
    </style>
  </defs>
  <g>
    <path class="cls-2" d="M2991.43,459.95s-22.03-5.2-27.26.16c-5.23,5.36-.41,21.78-.41,21.78l25.11,27.66s-5.23,5.36-.21,10.89c0,0,65.5,61.03,65.29,71.92,0,0-40.7-17.03-45.92-11.67,0,0-25.32-16.77-25.52-5.88,0,0,20.3,11.24,20.09,22.13l5.02,5.53,25.11,27.66s35.36,27.83,35.16,38.72c0,0,10.46-10.72,20.09,22.13l4.82,16.42,15.07,16.6,9.84,21.95-40.8-11.58-40.18-44.26-106.81-84.4-29.01-54.07-55.87-28.18,41.21-10.2,21.46-25.67,22.92-9.88,29.46-24.86s27.94.97,31.34,7.1Z"/>
    <path class="cls-3" d="M2053.91,63.43c47.16,33.91,93.2,70.22,138.41,106.68,21.94,14.73,54.62,38.08,79.11,55.56,25.18,17.99,53.91,39.07,78.85,57.55,0,0-8.25-3.79-8.25-3.79,45.82,8.62,97.96,18.95,143.45,28.52,0,0,3.54.74,3.54.74l2.97,1.77c8.91,5.31,26.87,16.03,35.76,21.39,0,0-1.35-.73-1.35-.73,51.21,25.97,102.8,52.95,153.24,80.42,0,0,5.85,3.17,5.85,3.17,0,0,1.46.8,1.46.8,0,0,1.41.89,1.41.89,0,0,2.82,1.78,2.82,1.78,33.4,21.16,67.61,43.49,100.54,65.47,15.54,9.99,31.82,20.5,47.2,30.74,17.9,11.05,35.79,22.15,53.41,33.8-18.78-6.87-37.47-14.25-56.02-21.73-55.71-23.98-110.07-52.5-163.75-80.65-.74-.42-2.19-1.13-2.97-1.46-3.49-1.56-14.4-6.49-18.12-8.16-48-21.66-96.42-44.44-143.76-67.36-9.71-5.48-27.71-16.09-37.36-21.68,0,0,6.51,2.51,6.51,2.51-45.52-9.24-97.57-20.44-143-30.68,0,0-4.9-1.09-4.9-1.09,0,0-3.35-2.69-3.35-2.69-50.62-40.58-101.91-83.01-151.06-125.34-41.01-41.12-81.95-83.09-120.63-126.43h0Z"/>
    <path class="cls-3" d="M2416.29,423.74c23.14,8.74,44.23,21.64,64.53,35.53,0,0-.91-.63-.91-.63,6.18,3.57,12.36,7.13,18.33,11.05,18.06,11.53,33.79,26.94,50.87,39.8,0,0-1.97-.71-1.97-.71,6.69,1.6,13.42,2.89,20.2,3.89,20.41,3.16,41.09,3.59,61.71,3.81,0,0,.19,0,.19,0l2.21.68c5.58,1.75,13.46,4.14,18.89,6.07,0,0-.72-.29-.72-.29,16.74,4.58,33.22,9.93,49.8,15.03,10.81,3.47,23.23,7.61,33.74,11.74,8.99,3.76,17.65,8.33,26.36,12.72,9.45,4.82,19.45,10.22,28.7,15.43,9.52,5.03,18.74,10.62,28.13,15.91,7.55,4.28,15.06,8.7,22.41,13.64,0,0-.94,2.55-.94,2.55-9.9-1.18-19.6-3-29.28-4.99-17.95-4.12-35.69-9.65-53.03-15.82-5.96-2.16-12.26-4.41-18.12-6.66-6.02-2.26-11.91-4.85-18.02-6.86-18.04-6.25-36.16-14.05-53.73-21.48-8.16-3.41-16.28-6.92-24.35-10.61-5.04-2.74-12.15-7-17.15-9.98,0,0,2.39.69,2.39.69-13.29-3.6-26.58-7.39-40.07-10.09-13.46-2.68-27.02-4.67-40.75-5.3,0,0-.6-.03-.6-.03,0,0-1.36-.68-1.36-.68-19.13-9.54-39.93-16.74-58.31-27.77-6.43-3.75-12.63-7.88-18.84-11.99-9.47-7.77-18.62-15.92-27.34-24.56-8.79-8.76-17.22-17.77-24.58-27.93,0,0,1.64-2.17,1.64-2.17h0Z"/>
    <path class="cls-3" d="M2120.49,191.81c12.8,14.38,24.33,29.76,35.52,45.38,0,0-.32-.52-.32-.52l5.12,6.18c11.77,14.46,23.16,29.36,34.05,44.47,0,0-4.04-3.86-4.04-3.86,14.53,8.07,28.87,16.49,43.03,25.19.91,1.08,4.75,5.64,5.73,6.8,0,0,4.37,5.24,4.37,5.24l-.64-.69c13.07,13.7,25.79,27.74,38.08,42.14,9.56,11.89,19.31,26.61,28.02,39.23,6.48,9.71,13.23,19.22,19.44,29.21-12.38-7.99-23.97-17.13-34.94-26.95-6.3-5.69-13-11.88-19.06-17.71-3.65-3.6-8.78-8.57-12.65-11.8-13.03-11.49-25.74-23.35-38.14-35.47-2.47-2.79-6.99-7.93-9.44-10.75,0,0,3.28,2.78,3.28,2.78-14.57-8.69-28.97-17.68-43.14-27.02-11.65-18.74-22.84-38.02-33.12-57.58-8.01-17.67-15.2-35.75-21.14-54.26h0Z"/>
    <path class="cls-3" d="M3106.11,608.7c9.91,8.41,21.41,20.31,29.16,28.49,8.37,7.7,16.69,15.83,24.61,23.95,2.66,2.73,5.3,5.47,7.91,8.24l-3.31-2.4c10.59,4.09,21.08,8.42,31.49,12.95,0,0,1.53.67,1.53.67l1.12,1.02c1.79,1.63,5.42,4.92,7.19,6.57,3.59,2.8,13.28,10.8,18.73,15.48,3.93,3.36,7.89,6.83,11.74,10.29,5.35,4.97,10.19,10.5,15.21,15.82,8.04,9.04,17.17,18.86,24.91,28.15-7.66-3.59-15.01-7.68-22.1-12.28-10.67-6.65-20.18-14.37-30.53-21.3-10.35-6.85-20.47-14.05-30.42-21.43-2.02-1.74-5.71-4.95-7.72-6.72,0,0,2.65,1.69,2.65,1.69-11.2-4.72-22.31-9.69-33.29-14.91-10.02-12.2-19.75-24.84-28.88-37.74-7.32-11.79-14.09-23.95-20.01-36.53h0Z"/>
    <path class="cls-2" d="M2250.14,829.92l-35.87,2.11c-1.07.51-13.54,8.39-14.59,8.9l-24.12,3.11-20.16-8.08-14.52-.6-20.44,2.24-35.57-4.51-74.68,13.61-.57-1.34-11.28-9.74-11.28-9.74-11.84,5.69-11.84,5.69-7.89,10.31-19.25.31-7.82-8.98-8.6-3.45-14.52-.6-17.2-6.89-14.52-.6-12.41,21.12-2.7.66-67.18,1.08.51-13.89-8.6-3.45-14.52-.6-17.2-6.89,5.35,12.58-14.52-.6-17.77,8.53-17.2-6.89-14.52-.6-23.12-4.05-11.28-9.74-11.28-9.74-20.44,2.24-17.2-6.89-6.49,18.27-9.17,11.98-11.84,5.69-14.52-.6-17.2-6.89-14.52-.6-11.28-9.74-17.77,8.53-11.28-9.74-14.52-.6-8.6-3.45-8.03-18.88-13.13,6.1-16.48,8.13-15.09,14.83-15.09,14.83-26.37,5.09-19.88-13.19-14.52-.6-17.2-6.89-11.28-9.74-11.84,5.69-9.17,11.98-6.36,17.9-1.02.02-16.31-6.54-14.52-.6-34.97,1.64-11.28-9.74-17.2-6.89-26.37,5.09-5.92,2.84-11.84,5.69-17.2-6.89-14.52-.6-14.52-.6-11.28-9.74-17.2-6.89-14.52-.6,5.35,12.58-17.77,8.53,3.24-9.14-8.6-3.45-11.28-9.74-11.84,5.69-.57,15.43-8.6-3.45s3.24-9.14.57-15.43,3.24-9.14,3.24-9.14l-20.44,2.24-14.52-.6-8.6-3.45-3.24,9.14-5.92,2.84,5.35,12.58-9.17,11.98-11.28-9.74-17.77,8.53-14.52-.6-25.8-10.34,6.49-18.27-11.84,5.69-11.84,5.69,2.68,6.29-11.84,5.69-8.6-3.45-17.2-6.89-20.44,2.24,6.09,5.26,5.19,4.48-23.12-4.05-17.77,8.53-12.72-8.44,78.87-68.68s4.55-11.38,20.37-13.56l78.63-33.09s34.33-12.5,76.74-57.35c42.41-44.84,73.17-44.32,73.17-44.32l72.58-42.35s21.33-43.22,77.81-47.71c0,0,51.87-31.81,62.33-42.52,10.46-10.72,20.87-18.52,20.87-18.52l68.41-33.71,51.88-19.73s25.02-7.61,27.27-7.24c2.25.38,14.98-10.62,14.98-10.62l44.43-20.08,56.44-10.58s46.85-37.34,83.45-74.85c0,0,59.7-29.83,73.68-27.79,0,0,9.6-.75,9.17,3.32l46.77-16.27,20.16-16.65s21.75-25.03,39.43-31.1c0,0,33.36-22.14,54.27-43.58l47.26-59.12,46.44-15.56s31.37-32.15,36.39-26.62l-15.99,32.41-30.96,10.37s-5.23,5.36,9.84,21.96l9.84,21.95s20.3,11.24,35.36,27.83c0,0,30.34,22.3,30.13,33.19,0,0-5.43,16.25-25.73,5.01,0,0-35.78-6.05-41.21,10.2-5.44,16.25-21.12,32.33,3.99,59.99,0,0,9.84,21.96,30.14,33.19,0,0,30.34,22.3,40.18,44.26l24.5,60.33,55.66,39.07s10.05,11.06,4.82,16.42c-5.23,5.36-10.25-.17-15.27-5.71,0,0-20.4-5.79-30.44-16.86l-5.23,5.36s-25.32-16.77-40.8-11.58c0,0-46.03-6.22-56.07-17.29l-35.57-16.94-65.7-50.13s-45.82-17.12-56.07-17.29c0,0-15.27-5.71-20.3-11.24-5.02-5.53-15.48,5.19-15.69,16.08-.21,10.89,4.61,27.31-.82,43.56-5.43,16.25,24.91,38.55,24.91,38.55l80.77,66.73,60.27,66.38s35.36,27.83,35.16,38.72c-.21,10.89,9.84,21.96,35.36,27.83,0,0,152.94,46.16,193.12,90.42,0,0,56.44,2.42,177.39,113.41l2.16-.02-65.35-10.2-36.49,1.57-57.06-.31-55.21,12.38,12.59-13.12Z"/>
    <g>
      <polygon class="cls-4" points="0 846.61 5.46 841.65 8.87 844.59 14.05 849.07 0 846.61"/>
      <path class="cls-2" d="M1290.9,284.77c-10.25-.17-71.14-33.88-71.14-33.88,0,0-30.55-11.41-35.78-6.05-5.23,5.36-30.55-11.41-30.55-11.41,0,0-25.53-5.88-10.46,10.72l25.11,27.66s4.4,38.2,14.45,49.27c10.05,11.06,19.27,65.69,19.27,65.69l60.27,66.38s5.02,5.53,10.05,11.06c5.02,5.53-5.23,5.36-5.23,5.36l-65.91-39.24s-20.3-11.24-30.75-.52c-10.46,10.72-56.48,4.49-56.48,4.49,0,0-56.07-17.29-71.76-1.21,0,0-15.48,5.19-25.52-5.88-10.05-11.06-35.36-27.83-35.36-27.83,0,0-25.73,5.01-30.75-.52-5.02-5.53-.21,10.89-.21,10.89,0,0,29.93,44.08,40.18,44.26,10.25.17,25.11,27.66,25.11,27.66l14.66,38.38s-.62,32.67,14.66,38.38c15.27,5.71,30.14,33.19,30.14,33.19,0,0,9.84,21.96,25.01,33.11,0,0-62.55,26.82-104.22,74.82-41.66,48-119.27,84.82-119.27,84.82l-51.46,10.02-23.37,20.73-3.75-1.5-2.5,7.05-32.23,28.59-7.29-.3-17.2-6.89-14.52-.6-11.28-9.74-17.77,8.53-11.28-9.74-14.52-.6-8.6-3.45-8.03-18.88-13.13,6.1-16.48,8.13-15.09,14.83-15.09,14.83-26.37,5.09-19.88-13.19-14.52-.6-17.2-6.89-11.28-9.74-11.84,5.69-9.17,11.98-6.4,18.02-.75-.02-16.54-6.63-14.52-.6-34.97,1.64-11.28-9.74-17.2-6.89-26.37,5.09-5.92,2.84-11.84,5.69-17.2-6.89-14.52-.6-14.52-.6-11.28-9.74-17.2-6.89-14.52-.6,5.35,12.58-17.77,8.53,3.24-9.14-8.6-3.45-11.28-9.74-11.84,5.69-.57,15.43-8.6-3.45s3.24-9.14.57-15.43,3.24-9.14,3.24-9.14l-20.44,2.24-14.52-.6-8.6-3.45-3.24,9.14-5.92,2.84,5.35,12.58-9.17,11.98-11.28-9.74-17.77,8.53-14.52-.6-25.8-10.34,6.49-18.27-11.84,5.69-11.84,5.69,2.68,6.29-11.84,5.69-8.6-3.45-17.2-6.89-14.49,1.59,62.76-57.03s41.83-42.87,67.35-36.99c0,0,46.44-15.56,93.91-85.57,0,0,21.53-54.11,108.97-68.97l155.83-106.31,35.98-4.84s10.46-10.72,25.73-5.01l98.31-47.36s45.85-59.7,116.83-115.42c0,0,54.68-6.97,127.26-49.32,0,0,134.71-73.98,150.6-100.95,0,0,30.55,11.41,87.44-14.86,0,0,5.43-16.25,20.81-15.99l30.14,33.19,19.68,43.91s75.96,50.31,85.8,72.26c0,0,5.02,5.53-5.23,5.36Z"/>
    </g>
    <path class="cls-3" d="M3592.2,848.31c-9.31-5.75-18.51-11.66-27.65-17.66,0,0,.97.58.97.58-15.7-4.55-32.38-9.67-47.89-14.52-15.91-4.98-31.77-10.1-47.59-15.33-4.31-2.33-11.31-6.19-15.6-8.65-32.84-18.44-64.87-38.39-96.27-59.11-22.39-13.32-48.63-29.1-70.76-42.72-9.09-5.56-18.15-11.18-27.21-16.8,0,0-1.33-1.19-1.33-1.19l-24.12-21.6c-23.32-21.01-48.95-44.17-71.91-65.32,0,0,5.17,3.33,5.17,3.33-39.28-18.4-83.61-39.91-122.5-59.31-21.7-20.09-43.02-40.87-63.18-62.52,0,0,.38.28.38.28,0,0-3.3-3.29-3.3-3.29l-3.26-3.36c-2.18-2.24-4.32-4.53-6.44-6.83,0,0,.95.29.95.29,0,0-5.29-.83-5.29-.83,0,0-5.29-.9-5.29-.9,2.75-.46,7.93-1.34,10.66-1.74,4.55,1.58,9.53,3.47,14.04,5.23,0,0,4.32,1.75,4.32,1.75,3.27,1.99,6.69,3.74,9.96,5.71,22.1,12.72,43.93,26.41,65.2,40.47,0,0-3.34-2.01-3.34-2.01,27.66,10.89,65.25,26.11,92.69,37.49,11.09,4.64,22.22,9.24,33.28,13.95,32.66,27.99,67.9,58.79,100.26,87.35,0,0-2.96-2.2-2.96-2.2,31.69,19.38,65.23,40.44,96.58,60.48,32.52,24.25,64.21,49.71,94.78,76.41,0,0,5.7,5.07,5.7,5.07,0,0-2.38-1.3-2.38-1.3,29.96,14.37,60,29.28,89.46,44.71,0,0,.83.43.83.43,0,0,.14.14.14.14,7.72,7.74,15.37,15.56,22.88,23.52h0Z"/>
    <path class="cls-3" d="M1607.4,355.51c-20.92-5.25-41.43-12-61.77-19.05-6.74-2.36-13.45-4.78-20.14-7.26-4.7-2.68-9.53-5.12-14.25-7.75-12.7-6.94-25.3-14.09-37.78-21.4,0,0,9.6,3.05,9.6,3.05-15.18.71-31.55,1.08-46.77,1.39-20.69-10.76-41.32-21.72-61.6-33.22-7.88-8.8-15.76-17.65-23.48-26.6-6.98-8.03-13.86-16.13-20.68-24.29,0,0,8.5,5.73,8.5,5.73-15.96-6.19-31.83-12.63-47.59-19.33-16.27-6.84-32.33-14.18-48.39-21.51-21.01-12.61-42.27-26.24-62.4-40.36-6.78-4.8-13.53-9.68-20.12-14.87,8.18,1.86,16.22,4.04,24.22,6.29,21.26,5.86,53.86,17.06,69.25,22.56,33.26,8.34,66.18,17.93,98.8,28.47,0,0,4.49,1.47,4.49,1.47,12.28,13.01,24.43,26.2,36.32,39.55,3.56,3.95,7.06,7.95,10.57,11.94l-5.42-4.39c17.55,10.06,34.93,20.44,52.14,31.09,0,0-9.45-2.6-9.45-2.6,13.72.85,28.72,1.89,42.37,3.09,0,0,6.42.59,6.42.59,8.68,6.71,17.34,13.52,25.88,20.42,7.51,6.07,14.97,12.21,22.35,18.45,0,0-1.49-.87-1.49-.87,24.13,15.49,47.99,31.49,70.43,49.41h0Z"/>
  </g>
  <path class="cls-1" d="M1961.8,150.31s-45.47-4.34-69.03-4.66c-23.56-.33-17.13-20.09-31.79-17.64-14.66,2.44-21.18-2.83-25.44-2.17-4.25.65-13.29-9.24-20.97-13.49-7.68-4.25-29.23-3.54-42.16,4.63-12.93,8.18-21.44,10.14-26.68,10.79-5.23.65-17.5.33-24.21,3.27-6.71,2.94-8.68,6.87-14.08,7.85-5.4.98-10.8,3.27-23.56,4.58-12.76,1.31-122.66,6.33-122.66,6.33l400.58.51h0Z"/>
  <path class="cls-1" d="M531.75,77.19s-30.89-2.95-46.9-3.17c-16.01-.22-11.64-13.65-21.59-11.99-9.96,1.66-14.39-1.92-17.28-1.48-2.89.44-9.03-6.28-14.25-9.16-5.22-2.89-19.86-2.41-28.65,3.15-8.79,5.56-14.57,6.89-18.12,7.33-3.56.44-11.89.22-16.45,2.22-4.56,2-5.9,4.67-9.56,5.33-3.67.67-7.34,2.22-16.01,3.11-8.67.89-83.33,4.3-83.33,4.3l272.14.35h0Z"/>
  <circle class="cls-3" cx="3121.2" cy="64.51" r="64.51"/>
  <path class="cls-1" d="M3413.25,250.69s-17.75-1.69-26.95-1.82c-9.2-.13-6.69-7.84-12.41-6.89-5.72.95-8.27-1.1-9.93-.85-1.66.26-5.19-3.61-8.19-5.27-3-1.66-11.41-1.38-16.46,1.81-5.05,3.19-8.37,3.96-10.42,4.21-2.04.26-6.83.13-9.45,1.28-2.62,1.15-3.39,2.68-5.5,3.07-2.11.38-4.22,1.28-9.2,1.79-4.98.51-47.9,2.47-47.9,2.47l156.41.2h0Z"/>
  <g>
    <path class="cls-3" d="M2746.1,44.42c-.4.32-.8.68-1.16,1.11l-.12.02c-1.69.33-5.55,1.08-7.48,4.97-.21.11-.47.24-.67.33-1.11.53-2.78,1.33-4.14,2.98-1.96.88-3.69,2.21-5.07,3.91-.36.44-.63.88-.83,1.28-.07.04-.13.08-.19.11-1.02.61-2.53,1.5-3.84,3.09-.39.35-1.04.94-1.63,1.82-1.21.78-2.3,1.67-3.25,2.67-.68.14-1.33.3-1.97.45l-.55.13c-1.48.35-4.97,1.7-5.46,6.63-.1.98,0,1.93.29,2.81-.91-.79-1.98-1.51-3.19-2.14-.62-.33-2.08-1.09-3.96-1.09-2.39,0-4.55,1.25-5.77,3.27-.31.18-.68.42-1.09.71-2.12.09-4.03.45-5.83,1.08-.35.12-.7.27-1.06.41-.1.04-.23.1-.34.14-.02,0-.05,0-.07,0-2.31,0-4.39.41-6.38,1.24-.15.06-.59.16-.91.24-1.01.23-2.48.57-3.99,1.41-1.52.11-3.42.65-5.26,2.25-.02,0-.05,0-.07,0-1.3,0-2.58.37-3.71,1.06-.29.18-.64.37-1.02.58-1.23.67-2.76,1.5-4.21,2.94-1.28.37-2.37.94-3.32,1.74-.47.4-1.38.8-2.34,1.23-.04.02-.08.03-.11.05l.07-.24-.4.15,1.78-3.27c2.37-1.75,4.8-3.48,7.28-5.12,2.94-1.95,5.47-3.3,8.28-3.61,2.31-.25,4.44-.75,6.5-1.24.46-.11.91-.22,1.37-.32.6-.14,1.21-.27,1.81-.4,2.46-.54,5-1.1,7.57-1.95,2.04-.67,3.49-1.87,4.32-3.58.18-.37.35-.8.47-1.3.07,0,.14,0,.21,0,5.31-.03,9.57-2.31,13.4-4.77,4.87-3.13,9.01-7.11,12.5-10.59.32-.32.64-.64.95-.97,1.35-1.38,2.52-2.57,3.73-3.12,1.14-.52,2.27-1.05,3.41-1.58,3.64-1.7,7.09-3.31,10.63-4.41l4.81-1.11M2712.85,80.23c.55.32,1.22.6,2.01.76.42.22.85.44,1.29.66-.08.06-.16.13-.25.19-.07.01-.13.03-.18.04h0c-.61-.13-1.38-.3-2.29-.37-.16-.44-.36-.86-.57-1.27M2759.58,30.63c-.14,0-.29.08-.42.16-1,.59-2,1.19-3,1.78-4.89,2.86-9.94,5.36-15.42,6.89-5.59,1.55-10.71,4.23-15.96,6.61-2.64,1.2-4.47,3.33-6.45,5.31-3.58,3.57-7.25,7.05-11.5,9.79-3.08,1.98-6.3,3.79-10.19,3.81-2,.01-3.83.73-5.41,2.04-.62.52-.95,1.13-.68,1.89.3.81-.07,1.04-.75,1.26-2.9.95-5.89,1.53-8.85,2.21-2.38.54-4.76,1.18-7.18,1.44-4.14.44-7.57,2.33-10.95,4.57-5.38,3.56-10.5,7.47-15.57,11.46-3.04,2.39-6.46,4.15-10.11,5.45-.32.11-.86.14-.81.56.04.31.22.38.44.38.17,0,.37-.04.52-.04,0,0,.02,0,.02,0,.12,0,.23,0,.35,0,1.84,0,3.55-.48,5.16-1.42.69-.4,1.42-.73,2.13-1.09.04.03.08.06.12.09-1.41,1.35-2.82,2.69-4.22,4.06-1.63,1.6-3.25,3.21-4.85,4.83-.24.24-.7.5-.49.86.08.14.18.19.29.19.21,0,.47-.18.68-.23,2.22-.61,3.79-2.17,5.43-3.65.22-.2.38-.51.88-.56-1.01,1.37-1.96,2.64-2.89,3.93-.4.55-.77,1.12-1.1,1.72-.24.43-.74.97-.26,1.39.09.08.19.11.28.11.33,0,.68-.37.98-.56,1.87-1.17,3.19-2.9,4.59-4.54.44-.52.9-1.02,1.45-1.46-.74,1.37-1.52,2.72-2.22,4.11-.32.64-.52,1.34-.74,2.02-.1.29-.24.68.12.86.07.04.13.05.2.05.24,0,.45-.22.63-.4,1.39-1.33,2.65-2.78,3.8-4.33.23-.3.38-.7.84-.87-.14.5-.28.95-.4,1.4-.1.38-.29.83.09,1.12.13.1.26.14.38.14.3,0,.57-.24.8-.42.66-.52,1.24-1.13,1.88-1.68.22-.19.42-.51.69-.51.13,0,.28.07.46.27.07.08.15.1.23.1.18,0,.38-.14.53-.24.5-.32,1.02-.65,1.48-1.03,1.14-.93,2.32-1.69,3.67-2.38,1.81-.93,3.85-1.56,5.46-2.91.37-.31.81-.49,1.29-.61.91-.23,1.68-.73,2.34-1.4,1.2-1.22,2.79-1.84,4.21-2.72.18-.11.37-.17.57-.17.16,0,.31.04.47.13.37.21.71.3,1.02.3.7,0,1.27-.47,1.78-1.11.73-.92,1.58-1.58,2.73-1.58.2,0,.41.02.63.06.08.01.17.02.26.02.17,0,.34-.03.43-.12,1.46-1.47,3.52-1.34,5.24-2.06,1.35-.57,2.66-.77,4.05-.77.13,0,.25,0,.38,0,.03,0,.05,0,.08,0,1.07,0,2.04-.56,3-.9,1.47-.52,2.93-.72,4.44-.76.94-.02,1.85-.16,2.56-.83.96-.9,2.4-1.17,2.98-2.61.16-.39.42-.53.71-.53.38,0,.81.22,1.17.41,2.01,1.06,3.66,2.42,4.04,4.85.05.35.22.68.34,1.02.5,1.42.95,1.95,1.96,1.95.35,0,.77-.07,1.29-.18.28-.06.56-.09.84-.09.76,0,1.52.19,2.19.33.32.07.63.1.94.1,1.04,0,1.99-.33,2.99-.5.15-.03.35-.09.43-.2,1.23-1.84,3.37-1.45,5.08-2.12.55-.21,1.02-.36,1.31-1.15.26-.68,1.37-1.09,2.16-1.51.52-.28,1.04-.5,1.03-1.17,0-.71-.5-1.03-1.11-1.25-3.41-1.28-6.76-2.68-9.99-4.36-.32-.17-.66-.29-.99-.43-.34-.14-.93.11-.85-.67.06-.65.14-1.21.87-1.39,1.13-.27,2.26-.55,3.4-.75.59-.1,1.06-.3,1.43-.77.95-1.21,2.11-2.15,3.45-2.91.46-.26.75-.71,1-1.17.32-.57.96-.96,1.28-1.37,1.16-1.53,3.04-1.96,4.3-3.25.39-.4.37-.99.68-1.38.94-1.16,2.13-2.01,3.55-2.49.43-.14.86-.23,1.06-.69.51-1.13,1.45-1.57,2.55-2.1,1.29-.61,2.7-1.3,3.35-2.87.6-1.46,2.15-1.72,3.48-1.97,1.3-.25,2.51-.18,3.23-1.72.37-.79,1.58-1.15,2.53-1.49,1.17-.42,2.44-.48,3.32-1.68.38-.52,1.6-.36,2.35-.69.75-.32,1.95-.14,1.99-1.48,0-.08.4-.17.63-.22.98-.19,1.97-.34,2.95-.54.38-.08.92-.12.95-.58.04-.51-.53-.54-.9-.62-.78-.17-1.57-.27-2.36-.48,2-.32,4.04-.37,6-.87.65-.16,1.77-.05,1.7-.91-.05-.66-1.14-.52-1.79-.55-1.67-.08-3.33-.08-5.03-.29,1.26-.27,2.52-.57,3.79-.8,1.15-.21,2.23-.64,3.32-1.04.33-.12.8-.25.73-.68-.05-.34-.28-.41-.52-.41-.16,0-.32.03-.46.04-3.03.26-6.06.51-9.07,1.02-.29.05-.58.1-.89.1-.22,0-.44-.02-.67-.09,1.29-.45,2.59-.91,3.88-1.36,1.87-.64,3.63-1.48,5.1-2.85.22-.2.64-.38.47-.74-.08-.16-.19-.2-.32-.2-.18,0-.38.09-.55.13-2.06.53-4.06,1.24-6.06,1.94-2.71.96-5.45,1.83-8.27,2.48,1.56-.84,3.21-1.51,4.66-2.56,1.12-.81,2.03-1.81,2.83-2.91.14-.19.35-.41.15-.64-.07-.08-.16-.11-.24-.11h0Z"/>
    <path class="cls-2" d="M2645.27,92.13c-1.34,1.29-2.7,2.57-4.03,3.87-1.56,1.52-3.1,3.06-4.64,4.61-.23.23-.67.48-.47.82.22.38.62.04.92-.05,2.12-.58,3.62-2.07,5.18-3.48.21-.19.36-.48.84-.54-.96,1.31-1.87,2.52-2.76,3.75-.38.53-.74,1.07-1.05,1.64-.23.41-.71.93-.24,1.32.39.33.83-.2,1.2-.43,1.79-1.11,3.04-2.77,4.38-4.34.42-.49.86-.97,1.39-1.39-.71,1.3-1.45,2.6-2.12,3.92-.31.61-.5,1.28-.71,1.93-.09.28-.23.65.11.83.32.16.57-.12.79-.33,1.33-1.27,2.53-2.66,3.63-4.13.22-.29.36-.67.8-.83-.14.48-.27.91-.38,1.34-.1.37-.28.79.08,1.07.43.34.82-.03,1.12-.27.63-.5,1.19-1.08,1.79-1.6.31-.27.57-.8,1.11-.23.21.23.52.01.73-.13.48-.31.97-.62,1.41-.98,1.09-.89,2.22-1.62,3.5-2.27,1.73-.89,3.68-1.49,5.21-2.78.36-.3.77-.47,1.23-.59.87-.22,1.61-.7,2.24-1.34,1.15-1.17,2.66-1.76,4.02-2.6.3-.18.65-.23.99-.04,1.15.64,1.97.11,2.67-.77.82-1.04,1.79-1.72,3.21-1.45.21.04.53.04.66-.09,1.39-1.4,3.36-1.28,5.01-1.97,1.41-.59,2.77-.77,4.23-.74,1.05.03,2-.52,2.94-.86,1.4-.5,2.8-.69,4.24-.72.9-.02,1.77-.16,2.45-.79.91-.86,2.29-1.12,2.84-2.49.34-.85,1.19-.44,1.8-.12,1.92,1.01,3.5,2.31,3.86,4.63.05.33.21.65.33.98.64,1.83,1.21,2.12,3.09,1.69.98-.22,2.01.04,2.89.23,1.37.29,2.51-.18,3.75-.39.15-.02.34-.08.41-.19,1.17-1.75,3.22-1.38,4.85-2.02.52-.2.97-.35,1.25-1.1.25-.65,1.31-1.04,2.06-1.44.49-.27.99-.48.99-1.12,0-.68-.48-.98-1.06-1.2-3.25-1.22-6.46-2.55-9.54-4.16-.3-.16-.63-.28-.94-.41-.33-.14-.89.1-.82-.64.06-.62.13-1.16.83-1.32,1.08-.26,2.15-.53,3.24-.72.56-.1,1.01-.29,1.36-.74.9-1.15,2.02-2.06,3.29-2.78.44-.25.71-.68.96-1.12.31-.54.92-.92,1.22-1.31,1.11-1.46,2.9-1.87,4.1-3.11.37-.38.35-.95.65-1.32.9-1.11,2.04-1.92,3.39-2.37.41-.14.82-.22,1.01-.65.49-1.08,1.39-1.5,2.44-2,1.23-.59,2.58-1.24,3.2-2.74.58-1.4,2.06-1.64,3.32-1.89,1.24-.24,2.39-.17,3.08-1.64.35-.76,1.51-1.1,2.41-1.43,1.12-.4,2.33-.45,3.17-1.6.37-.5,1.52-.34,2.25-.65.71-.31,1.86-.13,1.9-1.41,0-.08.39-.16.6-.21.94-.18,1.88-.33,2.82-.52.36-.07.88-.12.91-.55.03-.49-.51-.51-.85-.59-.74-.16-1.5-.26-2.25-.46,1.91-.3,3.85-.36,5.73-.83.62-.16,1.69-.05,1.62-.87-.05-.63-1.09-.5-1.71-.52-1.59-.07-3.18-.08-4.8-.28,1.21-.26,2.41-.54,3.62-.76,1.1-.2,2.13-.61,3.17-.99.31-.11.76-.24.7-.65-.08-.53-.6-.38-.95-.35-2.89.25-5.79.49-8.66.98-.48.08-.96.15-1.49,0,1.24-.43,2.47-.87,3.71-1.3,1.79-.61,3.47-1.41,4.87-2.72.21-.2.61-.36.45-.7-.17-.35-.55-.14-.83-.07-1.97.5-3.88,1.18-5.79,1.86-2.59.91-5.21,1.74-7.9,2.37,1.49-.8,3.06-1.44,4.45-2.44,1.07-.78,1.94-1.73,2.71-2.78.13-.18.33-.4.14-.61-.18-.21-.43-.07-.63.04-.96.56-1.91,1.13-2.86,1.69-4.67,2.73-9.49,5.12-14.73,6.58-5.34,1.48-10.23,4.04-15.24,6.31-2.52,1.14-4.27,3.18-6.16,5.07-3.42,3.41-6.92,6.74-10.99,9.35-2.95,1.89-6.02,3.62-9.73,3.64-1.91.01-3.66.69-5.16,1.95-.6.5-.91,1.08-.65,1.8.28.78-.07.99-.71,1.2-2.77.91-5.62,1.46-8.46,2.11-2.27.52-4.55,1.13-6.86,1.38-3.95.42-7.23,2.23-10.46,4.36-5.14,3.4-10.03,7.14-14.87,10.94-2.91,2.28-6.17,3.96-9.65,5.21-.3.11-.82.13-.78.54.06.54.61.31.94.32,1.88.06,3.63-.39,5.26-1.35.65-.38,1.35-.69,2.03-1.04.04.03.08.06.12.09Z"/>
  </g>
  <g>
    <path class="cls-3" d="M2481.84,50.77l4.3.07,6.45,3.58c4.05,2.64,7.75,5.86,11.64,9.26,1.19,1.04,2.38,2.08,3.59,3.1,1.52,1.29,2.59,3.28,3.83,5.58.27.5.54.99.81,1.49,3,5.39,6.6,11.6,11.33,17,3.39,3.86,7.54,8.14,13.91,10.01.56.16,1.05.42,1.5.78-.16.9-.11,1.69,0,2.33.5,2.9,2.63,4.34,3.33,4.82,2.78,1.89,5.65,3.44,8.42,4.94.69.38,1.39.75,2.08,1.13.52.29,1.04.58,1.56.87,2.3,1.29,4.68,2.62,7.32,3.7,3.62,1.47,6.39,4.16,9.45,7.74,2.55,2.99,5,6.06,7.36,9.14l2.03,9.12-1.33-.97v.77c-.24-.24-.48-.47-.73-.71-.69-.65-1.37-1.22-2.03-1.78-1.11-.94-2.16-1.82-2.73-2.66-.81-1.21-1.88-2.2-3.28-3.01-.02-.03-.08-.1-.15-.23-1.15-2.13-2.69-3.64-3.92-4.85-.4-.4-.79-.77-1.1-1.12-1.09-1.2-2.53-2-4.07-2.29-1.54-2.67-3.58-3.99-5.51-4.61-1.43-1.53-3.06-2.43-4.25-3.09-.5-.28-1.02-.56-1.26-.76-2.07-1.67-4.34-2.8-7.13-3.56-.17-.12-.44-.33-.64-.5-.32-.25-.67-.53-1.08-.82-1.96-1.4-4.18-2.48-6.78-3.3-.5-.7-1-1.24-1.4-1.67-.05-.05-.1-.11-.15-.16-.69-3.3-3.47-5.54-7.01-5.54-.88,0-1.66.14-2.3.27-1.8.37-6.98,1.45-10.04,6.37-1.43-.42-2.75-.5-3.73-.57l-.28-.02c-.17-.05-.59-.28-.95-.47-.71-1.11-1.57-1.97-2.43-2.63,1.71-.26,3.33-.54,4.9-.86.03,0,.07-.01.13-.02.23.03.49.04.77.04,3.19,0,5.84-2.27,6.43-5.53.91-4.98-1.83-7.34-3.54-8.3l-.62-.35c-.85-.48-1.73-.98-2.66-1.46-.83-1.7-1.92-3.29-3.26-4.77-.36-1.26-.94-2.19-1.3-2.77-.02-.03-.03-.05-.05-.08-.92-2.18-2.31-3.66-3.34-4.74-.17-.18-.36-.38-.54-.58-.08-.55-.22-1.23-.53-1.95-1.06-2.48-2.63-4.56-4.68-6.2-.94-2.38-2.63-3.88-3.75-4.87-.35-.31-.9-.8-1.13-1.08-.67-4.97-4.81-7.08-6.59-7.99l-.16-.08c-.17-.09-.34-.17-.51-.25-.91-2.51-2.95-4.03-4.21-4.92M2464.85,30.63c-.11,0-.22.04-.32.16-.34.38.12.74.31,1.06,1.31,2.18,3.16,3.82,5.22,5.25,1.43,1,2.84,2.01,4.26,3.01-.73-.01-1.32-.28-1.9-.56-3.48-1.67-7.09-3.04-10.69-4.42-.25-.09-.55-.26-.82-.26-.2,0-.38.09-.51.36-.23.49.3.82.65,1.08,1.19.87,2.35,1.77,3.68,2.43,1.47.73,2.9,1.53,4.35,2.3-2.14-.34-4.18-.91-6.23-1.4-.49-.12-1.15-.36-1.66-.36-.33,0-.59.1-.71.41-.38,1.02,1.02,1.28,1.75,1.7,2.22,1.29,4.68,2.08,7.01,3.16-1.04-.02-2.04-.17-3.04-.23-.18-.01-.39-.04-.59-.04-.33,0-.63.08-.72.48-.12.57.52.81.96,1.04,1.12.59,2.28,1.12,3.41,1.69.26.13.72.38.69.48-.42,1.65,1.11,1.85,1.91,2.5.81.66,2.34.89,2.63,1.66.66,1.78,2.18,2.29,3.46,3.21,1.03.75,2.38,1.6,2.56,2.7.34,2.14,1.84,2.46,3.33,3.23,1.52.78,3.32,1.63,3.55,3.62.24,2.14,1.73,3.48,3.08,4.67,1.15,1.02,2.15,1.89,2.38,3.45.09.62.58.88,1.05,1.21,1.56,1.08,2.72,2.53,3.46,4.27.25.58.01,1.29.35,1.92,1.08,2.02,3.22,3.2,4.1,5.47.24.61.89,1.31,1.08,2.12.15.65.34,1.3.82,1.78,1.36,1.39,2.46,2.94,3.19,4.75.28.7.79,1.11,1.47,1.44,1.32.64,2.6,1.38,3.88,2.1.83.47.72,1.18.58,1.99-.09.49-.29.6-.53.6-.21,0-.45-.09-.67-.09-.03,0-.05,0-.08,0-.45.05-.91.09-1.36.18-4.53.92-9.11,1.45-13.71,1.82-.82.07-1.53.28-1.79,1.14-.24.81.31,1.26.85,1.79.81.8,2.03,1.68,2.11,2.6.09,1.06.61,1.41,1.2,1.86,1.85,1.41,4.6,1.69,5.45,4.36.05.16.28.31.45.39,1.5.72,2.79,1.73,4.64,1.87,1.2.09,2.62.12,3.78.77.92.51,1.6.78,2.19.78.85,0,1.5-.57,2.38-1.8.26-.37.59-.72.78-1.13,1.31-2.83,3.8-3.91,6.62-4.5.34-.07.73-.15,1.08-.15.58,0,1.09.2,1.17.95.2,1.95,1.87,2.79,2.72,4.22.63,1.06,1.69,1.55,2.83,1.91,1.83.58,3.54,1.33,5.15,2.48,1.08.77,2.09,1.82,3.44,2.17,1.88.49,3.55,1.21,5.13,2.49,1.84,1.49,4.4,2.05,5.67,4.35.11.21.52.33.81.36,1.91.17,2.89,1.41,3.57,3.03.49,1.17,1.16,2.06,2.4,2.06.22,0,.47-.03.73-.09.1-.02.2-.03.29-.03.38,0,.7.18.95.45,1.43,1.57,3.14,2.88,4.18,4.79.57,1.05,1.33,1.93,2.36,2.53.54.32,1.01.68,1.35,1.2,1.48,2.21,3.75,3.7,5.63,5.46,1.4,1.31,2.57,2.65,3.63,4.18.43.62.94,1.2,1.44,1.77.18.21.41.49.68.49.07,0,.14-.02.21-.06.21-.13.38-.18.52-.18.44,0,.58.53.8.88.58.89,1.09,1.84,1.7,2.7.25.35.54.82,1.02.82.1,0,.21-.02.32-.07.56-.23.49-.83.5-1.34.01-.6,0-1.19,0-1.85.51.37.55.9.72,1.36.86,2.29,1.89,4.49,3.12,6.6.18.32.38.72.77.72.04,0,.08,0,.12-.01.5-.1.46-.62.45-1.01-.04-.91-.03-1.84-.2-2.72-.37-1.94-.84-3.85-1.27-5.78.52.73.9,1.5,1.26,2.28,1.14,2.49,2.14,5.07,4.01,7.14.34.37.66,1.04,1.14,1.04.08,0,.16-.02.24-.05.74-.33.31-1.17.17-1.78-.19-.84-.45-1.67-.74-2.48-.68-1.9-1.39-3.78-2.14-5.8.58.24.67.67.87.99,1.47,2.38,2.85,4.83,5.34,6.34.27.16.56.54.86.54.1,0,.2-.04.3-.14.38-.37-.09-.85-.3-1.22-1.4-2.54-2.8-5.07-4.23-7.58-1.22-2.15-2.48-4.28-3.72-6.42l.18-.07c.74.69,1.52,1.34,2.21,2.07,1.73,1.82,3.8,3.04,6.22,3.65.26.07.6.28.88.28.18,0,.34-.08.44-.34.21-.5-.45-.72-.79-.97-3.99-2.87-7.54-6.21-10.42-10.18-4.79-6.63-9.66-13.18-14.97-19.41-3.33-3.91-6.86-7.41-11.75-9.4-2.86-1.16-5.54-2.77-8.25-4.27-3.38-1.86-6.82-3.61-10.02-5.78-.75-.51-1.12-.91-.47-1.79.6-.82.41-1.68-.17-2.54-1.46-2.16-3.44-3.67-5.88-4.38-4.73-1.39-8.02-4.72-11.09-8.21-4.23-4.82-7.49-10.36-10.6-15.96-1.72-3.1-3.2-6.34-6-8.72-5.57-4.73-10.87-9.79-17.14-13.64-6.15-3.77-11.44-8.59-16.39-13.79-1.02-1.07-2.02-2.15-3.03-3.21-.16-.16-.35-.35-.56-.35-.07,0-.15.02-.22.07-.32.21-.14.56-.04.83.6,1.63,1.35,3.16,2.44,4.54,1.4,1.79,3.17,3.18,4.78,4.75-3.21-1.78-6.24-3.8-9.21-5.92-2.19-1.56-4.38-3.13-6.71-4.49-.23-.13-.5-.38-.76-.38h0Z"/>
    <path class="cls-2" d="M2587.37,147.57c1.22,2.11,2.47,4.21,3.67,6.33,1.41,2.48,2.8,4.98,4.17,7.48.2.37.67.84.3,1.21-.41.4-.79-.18-1.15-.39-2.45-1.49-3.81-3.91-5.26-6.26-.2-.32-.28-.74-.86-.98.74,1.99,1.44,3.85,2.11,5.72.29.8.54,1.62.73,2.44.14.6.56,1.43-.17,1.76-.6.27-.98-.55-1.36-.97-1.85-2.05-2.83-4.58-3.95-7.04-.35-.77-.73-1.53-1.24-2.25.42,1.9.89,3.79,1.25,5.7.17.88.16,1.79.2,2.69.02.39.06.9-.44,1-.46.09-.68-.36-.88-.7-1.21-2.08-2.22-4.26-3.07-6.51-.17-.44-.21-.97-.71-1.34,0,.65,0,1.24,0,1.83-.01.5.06,1.09-.49,1.32-.66.27-1.02-.33-1.32-.75-.61-.85-1.1-1.79-1.68-2.67-.29-.45-.43-1.22-1.31-.69-.35.21-.65-.17-.88-.42-.5-.56-1-1.13-1.42-1.74-1.05-1.51-2.21-2.83-3.58-4.13-1.86-1.74-4.09-3.21-5.56-5.39-.34-.51-.8-.87-1.34-1.18-1.02-.59-1.77-1.46-2.33-2.49-1.02-1.88-2.71-3.18-4.12-4.72-.31-.34-.74-.53-1.23-.41-1.68.4-2.51-.57-3.08-1.94-.66-1.6-1.63-2.82-3.52-2.99-.28-.03-.69-.15-.8-.35-1.25-2.27-3.77-2.82-5.59-4.29-1.56-1.26-3.2-1.97-5.06-2.45-1.34-.35-2.33-1.38-3.39-2.14-1.59-1.13-3.27-1.88-5.08-2.44-1.13-.35-2.17-.84-2.79-1.88-.84-1.41-2.48-2.23-2.68-4.16-.12-1.19-1.34-.98-2.22-.8-2.78.58-5.24,1.64-6.53,4.44-.19.4-.51.74-.77,1.11-1.47,2.07-2.29,2.23-4.51,1.01-1.15-.63-2.54-.67-3.73-.75-1.83-.13-3.1-1.13-4.58-1.84-.17-.08-.4-.23-.45-.39-.84-2.63-3.55-2.91-5.38-4.3-.58-.45-1.1-.79-1.18-1.83-.08-.91-1.28-1.78-2.08-2.56-.53-.52-1.07-.96-.84-1.76.25-.85.96-1.06,1.76-1.12,4.54-.37,9.05-.88,13.52-1.8.44-.09.89-.13,1.34-.18.46-.05,1.08.45,1.26-.51.15-.8.25-1.5-.57-1.97-1.26-.71-2.52-1.44-3.83-2.08-.67-.33-1.17-.73-1.45-1.42-.72-1.78-1.8-3.32-3.14-4.68-.47-.47-.65-1.11-.8-1.75-.19-.79-.83-1.48-1.06-2.09-.87-2.23-2.98-3.4-4.04-5.39-.33-.62-.1-1.32-.34-1.89-.73-1.72-1.87-3.15-3.41-4.21-.47-.32-.95-.58-1.04-1.19-.22-1.53-1.21-2.39-2.34-3.4-1.33-1.18-2.8-2.5-3.04-4.61-.22-1.97-2-2.8-3.5-3.57-1.47-.75-2.95-1.07-3.29-3.18-.17-1.08-1.5-1.93-2.52-2.67-1.26-.91-2.76-1.41-3.42-3.17-.28-.76-1.79-.98-2.59-1.64-.79-.65-2.3-.84-1.89-2.47.02-.1-.43-.35-.68-.48-1.12-.56-2.25-1.09-3.36-1.67-.43-.22-1.06-.46-.94-1.03.13-.63.83-.46,1.29-.43.99.06,1.98.21,3,.23-2.3-1.07-4.72-1.84-6.91-3.12-.72-.42-2.1-.67-1.73-1.68.29-.77,1.55-.23,2.34-.04,2.03.48,4.04,1.05,6.15,1.38-1.43-.76-2.84-1.55-4.29-2.27-1.31-.65-2.46-1.54-3.63-2.4-.35-.26-.87-.58-.64-1.07.3-.63.89-.26,1.32-.1,3.55,1.36,7.11,2.71,10.55,4.36.57.27,1.15.54,1.87.55-1.4-.99-2.79-1.99-4.2-2.97-2.03-1.42-3.86-3.03-5.15-5.18-.19-.32-.64-.68-.31-1.05.34-.38.75.03,1.07.21,2.29,1.34,4.45,2.89,6.62,4.43,2.93,2.09,5.93,4.08,9.09,5.83-1.59-1.55-3.34-2.92-4.72-4.68-1.07-1.36-1.82-2.87-2.4-4.48-.1-.27-.27-.62.04-.82.3-.2.57.06.78.28,1,1.05,1.99,2.12,2.99,3.17,4.89,5.13,10.1,9.88,16.17,13.6,6.19,3.8,11.42,8.78,16.91,13.45,2.76,2.35,4.22,5.55,5.92,8.6,3.07,5.52,6.28,10.98,10.45,15.74,3.03,3.45,6.27,6.73,10.93,8.1,2.4.7,4.36,2.2,5.79,4.32.57.85.76,1.69.17,2.5-.64.87-.27,1.27.46,1.77,3.16,2.14,6.55,3.87,9.88,5.7,2.67,1.47,5.32,3.06,8.13,4.21,4.82,1.96,8.3,5.42,11.59,9.27,5.24,6.14,10.04,12.61,14.77,19.14,2.83,3.92,6.34,7.22,10.27,10.04.34.25.99.46.78.96-.27.66-.88.17-1.3.06-2.39-.6-4.43-1.81-6.13-3.6-.69-.72-1.45-1.36-2.18-2.04-.06.02-.12.05-.18.07Z"/>
  </g>
</svg>