<?xml version="1.0" encoding="UTF-8"?>
<svg id="Layer_1" data-name="Layer 1" xmlns="http://www.w3.org/2000/svg" viewBox="0 0 1368 360">
  <defs>
    <style>
      .cls-1, .cls-2 {
        stroke-width: 0px;
      }

      .cls-2 {
        fill: #fff;
      }
    </style>
  </defs>
  <rect class="cls-1" width="1368" height="360"/>
  <g>
    <path class="cls-2" d="M914.42,184.97c0-1.24.8-2.3,1.92-2.67l1.06-.32,43.55-13.19c.34-.11.57-.42.57-.77v-1.01c0-.31-.25-.57-.57-.57h-34.44c-1.31,0-2.6-.32-3.75-.94l-5.71-3.05c-.6-.31-.97-.94-.97-1.62v-2.93c0-.53.43-.96.96-.96h95.36c.53,0,1.01.22,1.36.56.55.55.56,1.23.56,1.36.09,2.45.06,4.98.06,7.59,0,2.1,0,4.16-.04,6.16,0,.46-.03,1.08-.13,1.42-.2.68-.67,1.25-1.3,1.57-.28.14-.68.25-1.17.39l-44.48,13.48c-.35.1-.58.41-.58.78v.81c0,.32.25.57.58.57h41.84c1.23,0,2.46.32,3.55.89l5.83,3.11c.58.31.94.92.94,1.57v2.97c0,.53-.43.96-.96.96h-102.1c-.53,0-1.02-.22-1.36-.56-.55-.55-.57-1.23-.57-1.36-.08-2.53-.1-4.82-.1-7.35,0-2.54,0-4.33.06-6.21l.02-.68Z"/>
    <path class="cls-2" d="M1172.11,157.67c-1.1-.5-2.31-.76-3.52-.76h-36.34c-.95,0-1.89.13-2.8.39-2.42.67-6.66,2.08-8.84,2.93-1.1.43-2.1,1.07-2.96,1.87l-40.26,38.03c-.38.36-.13,1,.39,1h29.05c1.07,0,2.1-.42,2.88-1.15l33.73-31.85c.43-.41.98-.66,1.57-.72.48-.06,6.93-.06,7.43-.01.55.06,1.03.35,1.32.82l7.92,13.02c.24.38-.04.88-.49.88h-18.2c-.98,0-1.94.35-2.69.97-.38.31-7.77,7.18-8.07,7.63-.25.37.01.92.5.92h34.38c.55,0,1.05.28,1.34.75l4.44,7.33c.53.88,1.49,1.43,2.52,1.43h28.54c.45,0,.72-.5.49-.88l-21.73-35.82c-.57-.93-1.35-1.72-2.27-2.28-2.15-1.32-6.06-3.43-8.36-4.47"/>
    <path class="cls-2" d="M459.95,186.83l17.61-4.17c1.28-.31,2.19-1.39,2.3-2.68.16-2.03.09-11.74,0-13.76-.05-1.06-.6-2.02-1.47-2.61-2.19-1.46-8.74-4.85-11.15-5.93-1.11-.5-2.3-.76-3.53-.76h-76.97c-1.39,0-2.77.31-4.01.92-2.18,1.07-8.96,4.67-10.79,5.76-1.02.61-1.65,1.72-1.65,2.91v32.69c0,1.06.86,1.92,1.93,1.92l24.67-.03c1.06,0,1.92-.86,1.92-1.92v-28.85c0-.52.25-1.01.66-1.32.7-.51,2.81-1.69,3.55-2.06.77-.38,1.6-.58,2.45-.58h40.1c.27,0,.53.05.77.17.56.26,3.18,1.67,3.67,2.04.26.19.42.49.44.81.05.85.1,4.83-.01,5.69-.04.35-.21.67-.47.9-.86.73-3.5,2.29-4.51,2.81-.57.3-1.2.45-1.83.45h-33.63c-.52,0-.96.43-.96.96v6.15c0,.53.43.96.96.96h13.6c.79,0,1.56.19,2.25.58l22.08,12.04c1.43.77,3.02,1.17,4.63,1.17h33.8c.62,0,.8-.84.24-1.1l-26.75-12.09c-.5-.23-.43-.96.1-1.09"/>
    <path class="cls-2" d="M568.06,156.92h84.53c.48,0,.88.36.95.82.07.44.06,7.74,0,8.19-.07.47-.47.84-.95.84h-63.37c-.54,0-1.07.11-1.56.32-.35.15-4.01,2.08-4.3,2.31-.26.2-.41.49-.43.81-.02.33-.05,3.49,0,3.82.05.28.28.48.56.48h66.81c.46,0,.85.33.94.77.09.39.08,6.61,0,7.04-.06.46-.46.81-.94.81h-66.8c-.27,0-.5.2-.56.46-.07.3-.05,3.85,0,4.17.04.29.17.55.39.74.52.45,3.92,2.17,4.56,2.46.47.22.99.34,1.51.34h64.86c.48,0,.88.35.95.82.08.6.09,7.61-.01,8.21-.07.46-.47.81-.94.81h-85.82c-1.16,0-2.32-.26-3.39-.75-2.38-1.1-8.94-4.54-11.15-5.94-1.01-.64-1.64-1.77-1.64-2.98v-24.85c0-1.23.64-2.37,1.67-3.01,2.1-1.31,9.09-4.98,11.33-6.05.88-.41,1.84-.63,2.81-.63"/>
    <path class="cls-2" d="M297.05,177.55c.95-.51,2.43-1.31,3.54-1.91.86-.46,1.41-1.34,1.47-2.3.09-1.39.09-5.81.02-7.21-.05-.94-.54-1.81-1.33-2.34-1.88-1.27-9.33-5.1-11.39-6.08-1.06-.51-2.24-.78-3.42-.78h-96.38c-1.06,0-1.92.86-1.97,1.92v40.37c.05,1.06.91,1.92,1.97,1.92h96.25c1.47,0,2.91-.31,4.25-.91,2.57-1.14,8.83-4.41,11.18-5.95.75-.49,1.23-1.29,1.33-2.16.1-.97.09-8.19,0-9.16-.08-.92-.61-1.73-1.42-2.17l-4.11-2.21c-.4-.22-.41-.8,0-1.01M270.91,173.62c-.31.11-.64.18-.98.18h-43.79c-.53,0-.96.42-.96.95v6.33c0,.53.44.96.96.96h44.55c.96,0,1.2.16,1.72.45.38.22,1.66,1.06,2,1.35.18.15.29.38.31.62.03.56.06,3.9,0,4.46-.05.38-.27.72-.59.92-1.11.66-2.42,1.25-3.62,1.73-.32.13-.68.2-1.02.2h-53.61c-.53,0-.96-.43-.96-.97v-23.45c0-.52.43-.95.96-.95h54.98c.43,0,.86.12,1.22.35.85.53,1.65,1.06,2.35,1.58.21.16.33.39.34.64.02.43.04,2.02-.01,2.45-.03.22-.15.42-.33.55-.65.44-2.77,1.41-3.51,1.68"/>
    <path class="cls-2" d="M733.91,184.97c0-1.24.8-2.3,1.92-2.67l1.06-.32,43.55-13.19c.34-.11.57-.42.57-.77v-1.01c0-.31-.25-.57-.57-.57h-34.44c-1.31,0-2.59-.32-3.75-.94l-5.71-3.05c-.6-.31-.97-.94-.97-1.62v-2.93c0-.53.43-.96.96-.96h95.36c.52,0,1.01.22,1.36.56.55.55.57,1.23.57,1.36.09,2.45.06,4.98.06,7.59,0,2.1.01,4.16-.04,6.16,0,.46-.04,1.08-.13,1.42-.2.68-.68,1.25-1.3,1.57-.28.14-.68.25-1.17.39l-44.48,13.48c-.34.1-.58.41-.58.78v.81c0,.32.26.57.57.57h41.84c1.24,0,2.46.32,3.55.89l5.82,3.11c.58.31.95.92.95,1.57v2.97c0,.53-.43.96-.96.96h-102.1c-.54,0-1.01-.22-1.36-.56-.56-.55-.57-1.23-.57-1.36-.08-2.53-.09-4.82-.09-7.35s0-4.33.06-6.21l.02-.68Z"/>
    <path class="cls-2" d="M1174.05,198.8l-4.7-7.75c-.33-.54-.92-.87-1.55-.87h-31.48c-.45,0-.71-.48-.51-.85.13-.24,5.37-5.11,5.47-5.18.49-.38,1.09-.59,1.72-.59h20.08c.76,0,1.22-.82.83-1.46l-9.17-15.04c-.39-.65-1.08-1.06-1.83-1.1-.66-.03-7.64-.04-8.31,0-.67.05-1.3.32-1.79.79l-34.1,32.2c-.5.48-1.17.75-1.86.75h-25.45c-.51,0-.77-.64-.39-1l37.86-35.75c.58-.55,1.27-.99,2.01-1.28,2.71-1.06,6.17-2.17,8.95-2.97.75-.22,1.53-.32,2.31-.32h36.47c.96,0,1.91.2,2.79.59,1.78.79,6.7,3.46,8.35,4.46.68.41,1.26.98,1.67,1.67l20.47,33.73c.23.39-.04.88-.5.88h-25.79c-.64,0-1.23-.34-1.57-.88Z"/>
    <path class="cls-2" d="M383.58,159.03c.96-.44,2-.67,3.05-.67h77.09c.99,0,1.95.2,2.84.59,2.18.95,8.89,4.45,10.86,5.78.56.38.93,1,.98,1.68.08,1.04.13,12.21-.01,13.24-.12.81-.72,1.5-1.53,1.68l-21.38,5.06c-.53.13-.6.87-.09,1.09l24.5,11.08c.57.26.38,1.1-.23,1.1h-27.4c-1.19,0-2.36-.29-3.4-.87l-22.43-12.23c-.84-.45-1.79-.7-2.74-.7h-12.64c-.32,0-.58-.26-.58-.58v-4.04c0-.32.26-.57.58-.57h32.78c.79,0,1.56-.21,2.24-.58,1.74-.96,3.52-1.96,5.09-3.18.41-.32.66-.79.71-1.29.07-.83.1-6.13-.01-6.97-.05-.44-.29-.81-.65-1.06-.91-.61-3.26-1.88-4.31-2.38-.39-.19-.82-.29-1.26-.29h-40.23c-1.05,0-2.08.24-3.03.71-1.39.7-2.87,1.52-4.15,2.4-.56.39-.9,1.03-.9,1.71v28.94c0,.53-.42.96-.96.96l-23.71.03c-.52,0-.96-.43-.96-.96v-32.01c0-.78.39-1.5,1.03-1.91,1.34-.87,9.38-5.1,10.82-5.77Z"/>
    <path class="cls-2" d="M554.87,193.32c-.73-.5-1.18-1.34-1.18-2.24v-24.22c0-.82.4-1.58,1.06-2.06,1.48-1.08,9.76-5.33,11.26-6.03.59-.27,1.24-.42,1.9-.42h83.62c.27,0,.52.2.57.46.06.34.06,5.74,0,6.04-.05.27-.29.46-.57.46h-62.14c-.94,0-1.87.22-2.72.65-.55.28-3.88,2.02-4.39,2.35-.47.3-.78.82-.8,1.38-.04.75-.07,4.55,0,5.38.04.49.45.87.94.87h66.81c.28,0,.51.2.57.46.04.22.04,4.57,0,4.81-.06.27-.29.47-.57.47h-66.8c-.45,0-.85.32-.93.77-.11.49-.07,5.41-.01,5.89.06.48.31.92.7,1.19.86.63,3.91,2.17,4.89,2.62.8.38,1.67.57,2.57.57h63.55c.27,0,.49.19.56.43.11.39.06,5.82.01,6.07-.06.26-.29.45-.57.45h-84.79c-.97,0-1.94-.21-2.82-.64-1.59-.76-9.25-4.72-10.71-5.72Z"/>
    <path class="cls-2" d="M189.07,198.73v-39.4c0-.53.43-.96.97-.96h95.61c1.13,0,2.24.26,3.26.73,1.48.7,9.57,4.94,10.97,5.86.41.27.68.7.73,1.18.12.91.08,6.11,0,7.01-.03.54-.36,1.03-.84,1.29-1.46.79-4.3,2.31-5.77,3.11-.41.22-.41.79,0,1.01l6.26,3.38c.5.27.82.78.86,1.34.07.89.1,7.73,0,8.62-.05.51-.35.98-.81,1.24-3.82,2.25-7.02,4.06-11.07,5.9-.94.43-1.96.65-2.99.65h-96.22c-.54,0-.97-.43-.97-.96ZM215.4,193.18h53.88c.66,0,1.33-.13,1.95-.39,1.46-.6,3.01-1.21,4.34-2.07.33-.22.55-.58.59-.98.06-.64.08-5.28,0-5.92-.04-.34-.2-.64-.47-.86-.36-.31-2.31-1.6-2.72-1.83-.6-.35-1.29-.54-2-.54h-43.76c-.32,0-.59-.26-.59-.57v-4.21c0-.32.27-.58.58-.58h42.98c.44,0,.87-.09,1.27-.27,1.27-.57,3.06-1.26,4.23-2.03.3-.2.48-.52.5-.89.03-.46.04-3.23,0-3.68-.03-.34-.19-.66-.44-.89-.53-.46-2.76-1.92-3.33-2.25-.32-.2-.7-.29-1.08-.29h-55.95c-1.06,0-1.92.85-1.92,1.92v24.42c0,1.06.86,1.92,1.92,1.92Z"/>
    <path class="cls-2" d="M916.82,183.67c-.56.18-.96.71-.96,1.33v.24c-.08,2.02-.08,4.12-.08,6.28,0,2.5,0,4.91.1,7.22,0,.53.43.96.96.96h100.56c.31,0,.57-.26.57-.58v-1.48c0-.4-.22-.74-.56-.93l-5.74-3.06c-.7-.38-1.48-.56-2.26-.56h-43.22c-.53,0-.96-.44-.96-.96v-2.51c0-.63.41-1.17,1-1.35l45.5-13.77.19-.06c.56-.16.95-.67.95-1.28v-.23c.07-2.01.04-4.08.04-6.2.01-2.55.05-5-.04-7.38,0-.53-.43-.95-.95-.95h-93.82c-.32,0-.58.25-.58.57v1.43c0,.42.22.8.59.99l5.68,3.03c.71.38,1.52.58,2.32.58h35.89c.54,0,.96.43.96.96v2.75c0,.58-.38,1.09-.93,1.25l-44.92,13.61-.28.09Z"/>
    <path class="cls-2" d="M736.32,183.67c-.56.18-.96.71-.96,1.33v.24c-.08,2.02-.08,4.12-.09,6.28,0,2.5,0,4.91.1,7.22,0,.53.43.96.96.96h100.56c.32,0,.58-.26.58-.58v-1.48c0-.4-.22-.74-.56-.93l-5.74-3.06c-.71-.38-1.47-.56-2.26-.56h-43.22c-.53,0-.96-.44-.96-.96v-2.51c0-.63.41-1.17,1-1.35l45.5-13.77.19-.06c.56-.16.95-.67.95-1.28v-.23c.07-2.01.04-4.08.04-6.2,0-2.55.05-5-.04-7.38,0-.53-.43-.95-.95-.95h-93.83c-.31,0-.57.25-.57.57v1.43c0,.42.22.8.59.99l5.67,3.03c.72.38,1.52.58,2.33.58h35.89c.54,0,.96.43.96.96v2.75c0,.58-.37,1.09-.93,1.25l-44.92,13.61-.28.09Z"/>
  </g>
</svg>